<svg width="55" height="48" viewBox="0 0 55 48" fill="none" xmlns="http://www.w3.org/2000/svg">
<g clip-path="url(#clip0)">
<path d="M54.7854 11.333L45.6223 0.333008C45.4504 0.128906 45.1926 0 44.9133 0H10.0871C9.81859 0 9.56078 0.118164 9.37816 0.333008L0.215076 11.333C-0.0105095 11.6016 -0.0642205 11.9883 0.0861702 12.3105C0.236561 12.6328 0.558826 12.8369 0.913319 12.8369H54.0764C54.4309 12.8369 54.7532 12.6328 54.9036 12.3105C55.0647 11.9883 55.0217 11.6016 54.7854 11.333ZM2.87914 11L10.5168 1.83691H44.4944L52.1321 11H2.87914Z" fill="#E5B66C"/>
<path d="M28.3486 0.569336C28.209 0.225586 27.876 0 27.5 0H10.0869C9.75388 0 9.45309 0.171875 9.29196 0.461914C9.13083 0.751953 9.13083 1.0957 9.29196 1.375L15.7051 12.375C15.8447 12.6221 16.0918 12.7832 16.3818 12.8262C16.4248 12.8262 16.457 12.8369 16.5 12.8369C16.747 12.8369 16.9726 12.7402 17.1445 12.5684L28.1445 1.56836C28.4131 1.2998 28.4883 0.913086 28.3486 0.569336ZM16.6933 10.4307L11.6767 1.83691H25.2871L16.6933 10.4307Z" fill="#E5B66C"/>
<path d="M54.9034 11.5049C54.753 11.1934 54.4308 10.9893 54.087 10.9893H0.91317C0.56942 10.9893 0.247155 11.1826 0.0967641 11.5049C-0.0536266 11.8164 -0.0214 12.1924 0.193444 12.4717L26.7804 47.3086C26.9522 47.5342 27.2208 47.6738 27.5108 47.6738C27.8009 47.6738 28.0694 47.5449 28.2413 47.3086L54.8282 12.4717C55.0216 12.1924 55.0538 11.8272 54.9034 11.5049ZM27.5001 45.2354L2.77157 12.8369H52.2286L27.5001 45.2354Z" fill="#E5B66C"/>
<path d="M28.3702 46.4707L17.3702 11.6445C17.252 11.2578 16.8975 11 16.5001 11H0.91317C0.56942 11 0.247155 11.1933 0.0967641 11.5156C-0.0536266 11.8271 -0.0214 12.2031 0.193444 12.4824L26.7804 47.3193C26.963 47.5557 27.2315 47.6846 27.5108 47.6846C27.6505 47.6846 27.8009 47.6524 27.9298 47.5772C28.3165 47.3623 28.5098 46.9004 28.3702 46.4707ZM2.77157 12.8369H15.8341L25.0509 42.0234L2.77157 12.8369Z" fill="#E5B66C"/>
<path d="M45.7081 0.461914C45.547 0.171875 45.2462 0 44.9132 0H27.5001C27.1349 0 26.7911 0.225586 26.6515 0.569336C26.5118 0.913086 26.587 1.31055 26.8556 1.56836L37.8556 12.5684C38.0275 12.7402 38.2638 12.8369 38.5001 12.8369C38.5431 12.8369 38.5753 12.8369 38.6183 12.8262C38.8976 12.7939 39.1446 12.6221 39.295 12.375L45.7081 1.375C45.8693 1.0957 45.88 0.741211 45.7081 0.461914ZM38.3068 10.4307L29.713 1.83691H43.3234L38.3068 10.4307Z" fill="#E5B66C"/>
<path d="M54.9031 11.5156C54.7527 11.2041 54.4304 11 54.0867 11H38.4997C38.1023 11 37.7478 11.2578 37.6296 11.6445L26.6296 46.4707C26.5007 46.8896 26.6833 47.3515 27.0808 47.5556C27.2097 47.6201 27.3601 47.6631 27.4997 47.6631C27.779 47.6631 28.0476 47.5341 28.2302 47.3086L54.8171 12.4717C55.0212 12.1924 55.0642 11.8271 54.9031 11.5156ZM29.949 42.0234L39.1658 12.8369H52.2283L29.949 42.0234Z" fill="#E5B66C"/>
</g>
<defs>
<clipPath id="clip0">
<rect width="55" height="47.6631" fill="white"/>
</clipPath>
</defs>
</svg>
