<svg width="60" height="60" viewBox="0 0 60 60" fill="none" xmlns="http://www.w3.org/2000/svg">
<path d="M60 4.08984C60 3 59.5781 1.96875 58.8047 1.19531C58.0312 0.421875 57.0117 0 55.9102 0C54.8203 0 53.7891 0.433594 53.0156 1.20703C52.6875 1.53516 52.0898 2.23828 51.7617 2.63672C51.4219 3.04688 51.4805 3.66797 51.8906 4.00781C52.3008 4.34766 52.9219 4.28906 53.2617 3.87891C53.7773 3.25781 54.1992 2.77734 54.3867 2.57812C54.7969 2.16797 55.3359 1.94531 55.9102 1.93359H55.9219C56.4961 1.93359 57.0234 2.15625 57.4219 2.55469C57.8203 2.95312 58.043 3.49219 58.043 4.06641C58.043 4.64062 57.8086 5.19141 57.3984 5.58984C57.0352 5.95312 55.7695 6.96094 53.9648 8.21484C52.8984 6.38672 50.918 5.15625 48.6445 5.15625H34.4297C32.5078 5.15625 30.7031 5.90625 29.3438 7.26562L0.890625 35.7422C0.316406 36.3164 0 37.0781 0 37.8867C0 38.6953 0.316406 39.4688 0.890625 40.043L19.957 59.1094C20.5547 59.707 21.3281 60 22.1133 60C22.8984 60 23.6719 59.707 24.2695 59.1094L52.7227 30.6562C54.082 29.2969 54.832 27.4922 54.832 25.5703V11.332C54.832 10.9102 54.7852 10.5 54.7031 10.1016C56.7656 8.68359 58.2656 7.5 58.793 6.97266C59.5664 6.21094 60 5.17969 60 4.08984ZM52.875 25.5703C52.875 26.9766 52.3242 28.2891 51.3398 29.2852L22.8867 57.7383C22.4531 58.1719 21.7617 58.1719 21.3281 57.7383L2.26172 38.6719C2.05078 38.4609 1.93359 38.1914 1.93359 37.8984C1.93359 37.6055 2.05078 37.3242 2.26172 37.125L30.7148 8.66016C31.7109 7.66406 33.0234 7.125 34.4297 7.125H48.668C50.2617 7.125 51.6562 8.01562 52.3711 9.33984C51.2227 10.1016 49.9336 10.9102 48.5742 11.707C48.5273 11.6602 48.4922 11.6133 48.4453 11.5664C46.8516 9.97266 44.2617 9.97266 42.668 11.5664C41.0742 13.1602 41.0742 15.75 42.668 17.3438C43.4648 18.1406 44.5078 18.5391 45.5508 18.5391C46.5938 18.5391 47.6367 18.1406 48.4336 17.3438C49.5 16.2773 49.8516 14.7773 49.4883 13.418C50.6719 12.7266 51.8086 12.0234 52.8633 11.3438V11.3555L52.875 25.5703ZM44.6836 14.8828C44.8594 15.2227 45.1992 15.4219 45.5508 15.4219C45.7031 15.4219 45.8438 15.3867 45.9844 15.3164C46.5586 15.0352 47.1211 14.7305 47.6836 14.4258C47.6836 14.9766 47.4844 15.5391 47.0625 15.9609C46.2305 16.793 44.8711 16.793 44.0391 15.9609C43.207 15.1289 43.207 13.7695 44.0391 12.9375C44.4609 12.5156 45 12.3164 45.5508 12.3164C45.9844 12.3164 46.418 12.4453 46.7812 12.7148C46.2305 13.0195 45.668 13.3125 45.1055 13.5938C44.6367 13.8164 44.4492 14.4023 44.6836 14.8828Z" fill="#E5B66C"/>
</svg>
