<svg width="65" height="58" viewBox="0 0 65 58" fill="none" xmlns="http://www.w3.org/2000/svg">
<g clip-path="url(#clip0)">
<path d="M63.85 27.3015C63.5732 27.1254 63.2335 27.1002 62.9442 27.2386L58.2513 29.4277C59.6353 27.3644 60.453 24.8859 60.453 22.2186C60.453 15.0724 54.6405 9.27243 47.4943 9.27243C40.3481 9.27243 34.5355 15.085 34.5355 22.2186C34.5355 28.8742 39.5806 34.3722 46.06 35.0893L0.540693 56.2008C0.13809 56.3896 -0.0757925 56.8299 0.0122769 57.2577C0.112928 57.6854 0.490368 58 0.930715 58H58.2513C65.8719 58 52.6835 57.5848 52.6835 57.0564C52.6835 56.5405 62.2375 56.1128 55.1002 56.1128H5.20837L62.4032 29.5787V56.1128H50.9038C50.388 56.1128 49.9602 56.528 49.9602 57.0564C49.9602 57.5848 50.3754 58 50.9038 58H63.3342C63.85 58 64.2778 57.5848 64.2778 57.0564V28.1067C64.2904 27.7796 64.1268 27.4776 63.85 27.3015ZM36.4353 22.2061C36.4353 16.1041 41.4049 11.1345 47.5068 11.1345C53.6088 11.1345 58.5784 16.1041 58.5784 22.2061C58.5784 28.308 53.6088 33.2776 47.5068 33.2776C41.4049 33.2776 36.4353 28.308 36.4353 22.2061Z" fill="#E5B66C"/>
<path d="M3.49721 45.6703C3.6356 45.6703 3.76142 45.6451 3.89981 45.5822L30.5471 33.089L28.6851 36.3979C28.4334 36.8508 28.5844 37.4295 29.0373 37.6812C29.4903 37.9328 30.069 37.7818 30.3206 37.3289L33.6295 31.4534C33.944 30.8998 33.6044 30.1827 32.9753 30.0694L26.3449 28.8616C25.8291 28.7735 25.3384 29.1132 25.2503 29.6165C25.1623 30.1323 25.502 30.623 26.0052 30.7111L29.7419 31.3905L3.09461 43.8838C2.6291 44.1102 2.41521 44.6638 2.64168 45.1419C2.80523 45.469 3.14493 45.6703 3.49721 45.6703Z" fill="#E5B66C"/>
<path d="M13.3993 14.934C13.4874 15.2863 13.7893 15.5505 14.1416 15.6134L20.772 16.8212C20.8349 16.8338 20.8852 16.8338 20.9355 16.8338C21.3759 16.8338 21.7785 16.5193 21.8666 16.0664C21.9546 15.5505 21.6149 15.0598 21.1117 14.9718L17.375 14.2924L44.0223 1.79911C44.4878 1.57265 44.7017 1.01907 44.4752 0.540979C44.2488 0.0754692 43.6952 -0.138414 43.2171 0.0880505L16.5698 12.5813L18.4318 9.27243C18.6835 8.8195 18.5325 8.24076 18.0796 7.98913C17.6266 7.73751 17.0479 7.88848 16.7963 8.34141L13.4874 14.2169C13.3616 14.4434 13.3364 14.695 13.3993 14.934Z" fill="#E5B66C"/>
</g>
<defs>
<clipPath id="clip0">
<rect width="64.2907" height="58" fill="white"/>
</clipPath>
</defs>
</svg>
