<svg width="64" height="65" viewBox="0 0 64 65" fill="none" xmlns="http://www.w3.org/2000/svg">
<path d="M37.6339 33.882C37.5821 34.1519 37.7052 34.4294 37.927 34.5848L42.0929 37.526C42.1321 37.5547 42.1667 37.5707 42.2012 37.5867C42.5034 37.727 42.88 37.6394 43.0847 37.3566C43.3095 37.0306 43.2326 36.5856 42.9153 36.3648L40.567 34.7082L62.8364 34.6223C63.228 34.6152 63.5512 34.3034 63.5481 33.9031C63.5409 33.5115 63.2291 33.1883 62.8288 33.1914L40.5595 33.2773L42.8916 31.5994C43.2086 31.3687 43.2893 30.9234 43.0586 30.6064C42.8279 30.2894 42.3826 30.2086 42.0656 30.4393L37.9228 33.4179C37.7643 33.5332 37.6669 33.6979 37.6339 33.882Z" fill="#E5B66C"/>
<path d="M32.0803 38.8492C31.8106 38.7965 31.5326 38.9185 31.3764 39.1397L28.4198 43.2947C28.391 43.3338 28.3748 43.3683 28.3586 43.4027C28.2172 43.7045 28.3035 44.0813 28.5855 44.2871C28.9107 44.5131 29.3559 44.4379 29.5779 44.1214L31.2433 41.7793L31.2464 64.0488C31.2521 64.4405 31.5627 64.7648 31.963 64.7631C32.3546 64.7575 32.6789 64.4468 32.6773 64.0466L32.6742 41.777L34.3434 44.1154C34.5729 44.4332 35.0179 44.5156 35.3358 44.2861C35.6536 44.0566 35.736 43.6116 35.5065 43.2937L32.5434 39.1399C32.4286 38.9809 32.2643 38.8829 32.0803 38.8492Z" fill="#E5B66C"/>
<path d="M31.7393 26.1508C31.4697 26.2035 31.1917 26.0815 31.0355 25.8603L28.0788 21.7053C28.05 21.6662 28.0338 21.6318 28.0177 21.5973C27.8763 21.2956 27.9625 20.9187 28.2445 20.7129C28.5697 20.4869 29.015 20.5621 29.2369 20.8787L30.9023 23.2207L30.9054 0.951208C30.9111 0.559537 31.2217 0.23523 31.622 0.236873C32.0137 0.242555 32.338 0.553167 32.3363 0.953458L32.3332 23.223L34.0024 20.8846C34.2319 20.5668 34.677 20.4844 34.9948 20.7139C35.3127 20.9434 35.3951 21.3885 35.1655 21.7063L32.2024 25.8601C32.0876 26.0191 31.9233 26.1171 31.7393 26.1508Z" fill="#E5B66C"/>
<path d="M26.1497 33.7194C26.2015 33.9893 26.0784 34.2668 25.8567 34.4222L21.6907 37.3634C21.6515 37.3921 21.617 37.4081 21.5825 37.4241C21.2802 37.5644 20.9037 37.4768 20.699 37.194C20.4742 36.868 20.551 36.423 20.8684 36.2022L23.2166 34.5456L0.947259 34.4597C0.555611 34.4526 0.232461 34.1408 0.23559 33.7405C0.242728 33.3488 0.554542 33.0257 0.954824 33.0288L23.2242 33.1147L20.8921 31.4368C20.5751 31.2061 20.4943 30.7608 20.725 30.4438C20.9557 30.1268 21.401 30.046 21.718 30.2767L25.8608 33.2553C26.0193 33.3706 26.1168 33.5353 26.1497 33.7194Z" fill="#E5B66C"/>
</svg>
