<svg width="54" height="60" viewBox="0 0 54 60" fill="none" xmlns="http://www.w3.org/2000/svg">
<g clip-path="url(#clip0)">
<path d="M51.0395 26.9944C48.59 18.2462 41.7539 11.4101 33.0182 8.97312C35.2178 7.32346 35.6677 4.19911 34.018 1.99957C33.0682 0.737334 31.5935 -1.19461e-05 30.0189 0.0124854H22.0205C19.2711 -1.19461e-05 17.0341 2.22452 17.0216 4.97395C17.0216 6.54862 17.7589 8.03581 19.0086 8.97312C5.17403 12.8348 -2.89929 27.1818 0.974904 41.0039C4.8491 54.8261 19.1836 62.8994 33.0182 59.0252C46.8529 55.151 54.9012 40.8165 51.0395 26.9944ZM22.008 1.99957H30.0064C31.6685 1.99957 33.0057 3.33679 33.0057 4.99895C33.0057 6.6611 31.6685 7.99832 30.0064 7.99832H22.008C20.3459 7.99832 19.0086 6.6611 19.0086 4.99895C19.0086 3.33679 20.3459 1.99957 22.008 1.99957ZM26.0072 57.9879C12.76 57.9879 2.01219 47.2401 2.01219 33.9929C2.01219 20.7457 12.76 9.9979 26.0072 9.9979C39.2544 9.9979 50.0022 20.7457 50.0022 33.9929C49.9772 47.2401 39.2419 57.9754 26.0072 57.9879Z" fill="#E5B66C"/>
<path d="M5.0118 3.99916C2.24987 3.99916 0.0128403 6.23619 0.0128403 8.99812C0.0128403 11.76 2.24987 13.9971 5.0118 13.9971C7.77372 13.9971 10.0108 11.76 10.0108 8.99812C10.0108 6.23619 7.76123 3.99916 5.0118 3.99916ZM5.0118 11.9975C3.34965 11.9975 2.01242 10.6603 2.01242 8.99812C2.01242 7.33597 3.34965 5.99874 5.0118 5.99874C6.67395 5.99874 8.01117 7.33597 8.01117 8.99812C8.01117 10.6603 6.66146 11.9975 5.0118 11.9975Z" fill="#E5B66C"/>
<path d="M48.0028 3.99916C45.2409 3.99916 43.0039 6.23619 43.0039 8.99812C43.0039 11.76 45.2409 13.9971 48.0028 13.9971C50.7648 13.9971 53.0018 11.76 53.0018 8.99812C53.0018 6.23619 50.7523 3.99916 48.0028 3.99916ZM48.0028 11.9975C46.3407 11.9975 45.0035 10.6603 45.0035 8.99812C45.0035 7.33597 46.3407 5.99874 48.0028 5.99874C49.665 5.99874 51.0022 7.33597 51.0022 8.99812C51.0022 10.6603 49.6525 11.9975 48.0028 11.9975Z" fill="#E5B66C"/>
<path d="M26.0072 11.9975V13.9971C36.655 14.0096 45.4282 22.3578 45.9781 32.9931H28.8191C28.2693 31.4309 26.5571 30.6186 24.9949 31.1685C23.4328 31.7184 22.6204 33.4305 23.1703 34.9927C23.7202 36.5549 25.4324 37.3672 26.9945 36.8173C27.8443 36.5174 28.5192 35.8425 28.8191 34.9927H47.0029C47.5528 34.9927 48.0027 34.5428 48.0027 33.9929C47.9777 21.8454 38.1422 12.01 26.0072 11.9975ZM26.0072 34.9927C25.4573 34.9927 25.0074 34.5428 25.0074 33.9929C25.0074 33.443 25.4573 32.9931 26.0072 32.9931C26.5571 32.9931 27.007 33.443 27.007 33.9929C27.007 34.5428 26.5571 34.9927 26.0072 34.9927Z" fill="#E5B66C"/>
<path d="M38.7253 45.2965L37.3114 46.7104L41.5532 50.9521L42.9671 49.5382L38.7253 45.2965Z" fill="#E5B66C"/>
<path d="M27.0072 50.9894H25.0076V56.9881H27.0072V50.9894Z" fill="#E5B66C"/>
<path d="M13.2695 45.2971L9.02779 49.5388L10.4417 50.9527L14.6834 46.711L13.2695 45.2971Z" fill="#E5B66C"/>
<path d="M9.01097 32.9931H3.01221V34.9927H9.01097V32.9931Z" fill="#E5B66C"/>
<path d="M10.4497 17.031L9.03577 18.4449L13.2775 22.6866L14.6914 21.2727L10.4497 17.031Z" fill="#E5B66C"/>
</g>
<defs>
<clipPath id="clip0">
<rect width="53.0015" height="60" fill="white"/>
</clipPath>
</defs>
</svg>
