<svg width="38" height="25" viewBox="0 0 38 25" fill="none" xmlns="http://www.w3.org/2000/svg">
<path d="M37.2766 11.9451L25.5567 0.225242C25.2491 -0.0750806 24.7583 -0.0750806 24.4506 0.225242C24.143 0.532889 24.143 1.02366 24.4506 1.33131L34.8374 11.7181H0.783768C0.351597 11.7181 0 12.0697 0 12.5018C0 12.934 0.351597 13.2856 0.783768 13.2856H34.8374L24.4506 23.665C24.143 23.9727 24.143 24.4635 24.4506 24.7711C24.6045 24.9249 24.8022 24.9982 25 24.9982C25.1978 24.9982 25.4029 24.9249 25.5494 24.7711L37.2693 13.0512C37.5769 12.7436 37.5769 12.2528 37.2766 11.9451Z" fill="#424242"/>
</svg>
