<svg width="67" height="51" viewBox="0 0 67 51" fill="none" xmlns="http://www.w3.org/2000/svg">
<path d="M63.5725 1.67413H3.2073C2.54329 1.67413 2 1.29745 2 0.837064C2 0.376679 2.54329 0 3.2073 0H63.5725C64.2365 0 64.7798 0.376679 64.7798 0.837064C64.7798 1.29745 64.2365 1.67413 63.5725 1.67413Z" fill="#E5B66C"/>
<path d="M64.3542 4.70848C63.9226 4.70848 63.5695 4.35535 63.5695 3.92374C63.5695 3.49213 63.9226 3.13899 64.3542 3.13899C64.7859 3.13899 65.139 2.78585 65.139 2.35424C65.139 1.92263 64.7859 1.56949 64.3542 1.56949C63.9226 1.56949 63.5695 1.92263 63.5695 2.35424C63.5695 2.78585 63.2164 3.13899 62.7847 3.13899C62.3531 3.13899 62 2.78585 62 2.35424C62 1.05941 63.0594 0 64.3542 0C65.6491 0 66.7085 1.05941 66.7085 2.35424C66.7085 3.64908 65.6491 4.70848 64.3542 4.70848Z" fill="#E5B66C"/>
<path d="M4 50.5C4.21875 50.5 4.7085 50.3594 4.7085 49.7863V2.22537C4.7085 1.55464 4.35536 1.00586 3.92375 1.00586C3.49214 1.00586 3.139 1.55464 3.139 2.22537V49.7863C3.139 50.4062 3.5 50.5 4 50.5Z" fill="#E5B66C"/>
<path d="M62.8613 50.4941C63.0801 50.4941 63.5698 50.3535 63.5698 49.7805V2.21951C63.5698 1.54878 63.2167 1 62.7851 1C62.3535 1 62.0003 1.54878 62.0003 2.21951V49.7805C62.0003 50.4004 62.3613 50.4941 62.8613 50.4941Z" fill="#E5B66C"/>
<path d="M2.35425 4.70848C2.78587 4.70848 3.139 4.35535 3.139 3.92374C3.139 3.49213 2.78587 3.13899 2.35425 3.13899C1.92264 3.13899 1.56951 2.78585 1.56951 2.35424C1.56951 1.92263 1.92264 1.56949 2.35425 1.56949C2.78587 1.56949 3.139 1.92263 3.139 2.35424C3.139 2.78585 3.49214 3.13899 3.92375 3.13899C4.35536 3.13899 4.7085 2.78585 4.7085 2.35424C4.7085 1.05941 3.64909 0 2.35425 0C1.05942 0 1.23978e-05 1.05941 1.23978e-05 2.35424C1.23978e-05 3.64908 1.05942 4.70848 2.35425 4.70848Z" fill="#E5B66C"/>
<path d="M61.8654 7H5.13462C4.51058 7 4 6.55 4 6C4 5.45 4.51058 5 5.13462 5H61.8654C62.4894 5 63 5.45 63 6C63 6.55 62.4894 7 61.8654 7Z" fill="#E5B66C"/>
<g clip-path="url(#clip0)">
<path d="M50.62 45.1271L46.1776 23.6296C45.6888 21.2516 44.6676 19.1872 43.2378 17.6699C41.5965 15.9264 39.4737 15 37.1103 15H30.2386C27.8752 15 25.7524 15.9264 24.1111 17.6699C22.6813 19.1945 21.6601 21.2516 21.1713 23.6296L16.7288 45.1271C15.7732 45.1417 15 45.9296 15 46.8852V49.2632C15 49.6644 15.3283 49.9927 15.7295 49.9927H22.3677C22.7689 49.9927 23.0971 49.6644 23.0971 49.2632V46.8852C23.0971 46.0244 22.4771 45.3095 21.6674 45.1563L25.9129 24.6071C26.1244 23.5786 26.9779 20.4273 29.5165 19.9093V41.2391H28.4952C27.7366 41.2391 27.1165 41.8591 27.1165 42.6251V45.098C27.1165 45.8566 27.7366 46.4767 28.4952 46.4767L33.6817 46.3891C34.083 46.3891 33.3827 46.1192 33.3827 45.718C33.3827 45.3168 33.9152 45.1198 33.514 45.1198L28.5827 45.0177V42.698H38.7807V45.0177H28.5682C28.1669 45.0177 31.8289 45.3095 31.8289 45.718C31.8289 46.1265 28.0867 46.4767 28.4879 46.4767H38.861C39.6269 46.4767 40.247 45.8566 40.247 45.098V42.6251C40.247 41.8591 39.6269 41.2391 38.861 41.2391H37.8397V19.9093C40.371 20.4273 41.2318 23.5786 41.4433 24.6071L45.6888 45.1563C44.8718 45.3095 44.2591 46.0317 44.2591 46.8852V49.2632C44.2591 49.6644 44.5873 49.9927 44.9885 49.9927H51.6267C52.0279 49.9927 52.3562 49.6644 52.3562 49.2632V46.8852C52.3489 45.9296 51.5757 45.1417 50.62 45.1271ZM21.6382 48.5411H16.4589V46.8925C16.4589 46.7247 16.5975 46.5861 16.7653 46.5861H21.3318C21.4996 46.5861 21.6382 46.7247 21.6382 46.8925V48.5411ZM20.1792 45.1271H18.217L21.5142 29.1517L23.3962 29.5384L20.1792 45.1271ZM23.6953 28.1159L21.8133 27.7293L22.4479 24.6436L24.3299 25.0302L23.6953 28.1159ZM36.3808 41.2464H30.9681V19.8364H36.3808V41.2464ZM41.1078 20.3616C40.0573 19.0704 38.6713 18.3847 37.1103 18.3847H30.2386C28.6703 18.3847 27.2916 19.0704 26.2411 20.3616C25.4023 21.3902 24.9281 22.6011 24.6509 23.6078L22.7689 23.2211C23.6661 19.8291 26.0369 16.4589 30.2386 16.4589H37.1103C41.312 16.4589 43.6828 19.8291 44.5873 23.2138L42.7053 23.6005C42.4281 22.6011 41.9466 21.3902 41.1078 20.3616ZM43.019 25.0302L44.901 24.6436L45.5356 27.7293L43.6536 28.1159L43.019 25.0302ZM45.8347 29.1517L49.1319 45.1271H47.1697L43.9527 29.5456L45.8347 29.1517ZM50.89 48.5411H45.7107V46.8925C45.7107 46.7247 45.8493 46.5861 46.0171 46.5861H50.5836C50.7514 46.5861 50.89 46.7247 50.89 46.8925V48.5411Z" fill="#E5B66C"/>
</g>
<defs>
<clipPath id="clip0">
<rect width="37.3489" height="35" fill="white" transform="translate(15 15)"/>
</clipPath>
</defs>
</svg>
