<svg width="70" height="49" viewBox="0 0 70 49" fill="none" xmlns="http://www.w3.org/2000/svg">
<path d="M56.9629 12.1683H11.8541C11.1096 12.1683 10.5005 11.7929 10.5005 11.3342C10.5005 10.8754 11.1096 10.5 11.8541 10.5H56.9799C57.7243 10.5 58.3335 10.8754 58.3335 11.3342C58.3335 11.7929 57.7243 12.1683 56.9629 12.1683Z" fill="#E5B66C"/>
<path d="M47.0646 7.50157H21.7596C21.342 7.50157 21.0003 7.1262 21.0003 6.66741C21.0003 6.20862 21.342 5.83325 21.7596 5.83325H47.0741C47.4917 5.83325 47.8334 6.20862 47.8334 6.66741C47.8334 7.1262 47.4917 7.50157 47.0646 7.50157Z" fill="#E5B66C"/>
<path d="M64.9212 16.9478H4.556C3.89198 16.9478 3.34869 16.5711 3.34869 16.1107C3.34869 15.6504 3.89198 15.2737 4.556 15.2737H64.9212C65.5852 15.2737 66.1285 15.6504 66.1285 16.1107C66.1285 16.5711 65.5852 16.9478 64.9212 16.9478Z" fill="#E5B66C"/>
<path d="M66.0766 48.1805C65.645 48.1805 65.2919 47.8274 65.2919 47.3958V16.7906C65.2919 16.359 65.645 16.0059 66.0766 16.0059C66.5082 16.0059 66.8613 16.359 66.8613 16.7906V47.3958C66.8613 47.8274 66.5082 48.1805 66.0766 48.1805Z" fill="#E5B66C"/>
<path d="M67.6461 19.145C67.2145 19.145 66.8613 18.7919 66.8613 18.3603C66.8613 17.9286 67.2145 17.5755 67.6461 17.5755C68.0777 17.5755 68.4308 17.2224 68.4308 16.7908C68.4308 16.3592 68.0777 16.006 67.6461 16.006C67.2145 16.006 66.8613 16.3592 66.8613 16.7908C66.8613 17.2224 66.5082 17.5755 66.0766 17.5755C65.645 17.5755 65.2919 17.2224 65.2919 16.7908C65.2919 15.4959 66.3513 14.4365 67.6461 14.4365C68.9409 14.4365 70.0003 15.4959 70.0003 16.7908C70.0003 18.0856 68.9409 19.145 67.6461 19.145Z" fill="#E5B66C"/>
<path d="M3.92373 48.1805C4.35534 48.1805 4.70848 47.8274 4.70848 47.3958V16.7906C4.70848 16.359 4.35534 16.0059 3.92373 16.0059C3.49212 16.0059 3.13899 16.359 3.13899 16.7906V47.3958C3.13899 47.8274 3.49212 48.1805 3.92373 48.1805Z" fill="#E5B66C"/>
<path d="M2.35424 19.145C2.78585 19.145 3.13899 18.7919 3.13899 18.3603C3.13899 17.9286 2.78585 17.5755 2.35424 17.5755C1.92263 17.5755 1.56949 17.2224 1.56949 16.7908C1.56949 16.3592 1.92263 16.006 2.35424 16.006C2.78585 16.006 3.13899 16.3592 3.13899 16.7908C3.13899 17.2224 3.49212 17.5755 3.92373 17.5755C4.35534 17.5755 4.70848 17.2224 4.70848 16.7908C4.70848 15.4959 3.64907 14.4365 2.35424 14.4365C1.05941 14.4365 -2.86102e-06 15.4959 -2.86102e-06 16.7908C-2.86102e-06 18.0856 1.05941 19.145 2.35424 19.145Z" fill="#E5B66C"/>
<path d="M2.93432 16.1106C2.54199 16.1106 2.16536 15.9898 1.91427 15.7784C1.50625 15.4159 1.6318 14.9126 2.19675 14.6508L33.5828 0.153683C34.1477 -0.10807 34.9324 -0.0275308 35.3404 0.334897C35.7484 0.697325 35.6229 1.2007 35.0579 1.46245L3.67189 15.9596C3.45219 16.0602 3.18541 16.1106 2.93432 16.1106Z" fill="#E5B66C"/>
<path d="M65.7063 16.1106C65.4552 16.1106 65.2041 16.0602 64.9687 15.9596L33.5826 1.46245C33.0177 1.2007 32.8921 0.697325 33.3002 0.334897C33.7082 -0.0275308 34.4928 -0.10807 35.0578 0.153683L66.4439 14.6508C67.0088 14.9126 67.1344 15.4159 66.7264 15.7784C66.4753 15.9898 66.0986 16.1106 65.7063 16.1106Z" fill="#E5B66C"/>
<g clip-path="url(#clip0)">
<path d="M30.8339 34.8445H34.2907V36.5914H30.8339V34.8445Z" fill="#E5B66C"/>
<path d="M60.366 32.2325L54.4903 31.3864C53.4162 30.7222 52.306 30.1308 51.1598 29.6121C47.378 27.8834 43.2713 26.9827 39.1104 26.9918H38.0905C33.1895 26.9918 28.3608 28.2383 24.0465 30.6039L21.077 32.2325C17.6111 32.2689 14.2084 33.2061 11.1938 34.9348C9.96632 35.6445 9.20816 36.9546 9.20816 38.3831V43.5602C9.20816 44.0424 9.59627 44.4336 10.0746 44.4336H12.9809C13.9286 47.1541 16.88 48.5826 19.5697 47.6272C21.0499 47.0995 22.2233 45.9258 22.7377 44.4336H45.8526C46.8003 47.1541 49.7518 48.5826 52.4414 47.6272C53.9216 47.0995 55.095 45.9258 55.6094 44.4336H55.9163C56.0246 44.4336 56.1329 44.4154 56.2412 44.3699L59.0392 43.2326C60.2938 42.7322 61.1061 41.513 61.1061 40.1573V33.0969C61.1061 32.6601 60.7902 32.2962 60.366 32.2325ZM21.2485 43.3873C20.8694 45.2707 19.0372 46.4899 17.1689 46.1078C15.3005 45.7256 14.0911 43.8786 14.4702 41.9952C14.8492 40.1118 16.6815 38.8926 18.5498 39.2748C20.1564 39.6023 21.3207 41.0399 21.3207 42.6958C21.3207 42.9233 21.2936 43.1598 21.2485 43.3873ZM36.8901 42.6867H23.0446C23.0446 39.7934 20.725 37.4551 17.8548 37.4551C14.9846 37.4551 12.665 39.7934 12.665 42.6867H10.9411V38.3831C10.9411 37.5824 11.3653 36.8455 12.0513 36.4542C14.8763 34.8256 18.0714 33.9703 21.3207 33.9703H36.8901V42.6867ZM36.8901 32.2234H24.7144L24.8768 32.1324C28.5774 30.1035 32.6841 28.957 36.8901 28.7751V32.2234ZM38.623 28.7387H39.1104C42.5943 28.7387 46.0512 29.4029 49.2914 30.704L47.7841 32.2234H38.623V28.7387ZM54.1202 43.3873C53.7411 45.2707 51.9089 46.4899 50.0406 46.1078C48.1722 45.7256 46.9628 43.8786 47.3419 41.9952C47.721 40.1118 49.5532 38.8926 51.4215 39.2748C53.0281 39.6023 54.1924 41.0399 54.1924 42.6958C54.1924 42.9233 54.1653 43.1598 54.1202 43.3873ZM59.3822 34.8438H56.7828V36.5907H59.3822V40.1664C59.3822 40.8124 58.9941 41.3856 58.4074 41.6222L55.9254 42.623C55.9254 42.5411 55.9163 42.4593 55.9073 42.3865C55.8983 42.3046 55.8983 42.2136 55.8892 42.1226C55.8802 42.0316 55.8622 41.9497 55.8531 41.8587C55.8351 41.7678 55.8261 41.6859 55.808 41.604C55.79 41.5221 55.7629 41.4402 55.7448 41.3492C55.7268 41.2673 55.7087 41.1855 55.6817 41.1036C55.6546 41.0217 55.6275 40.9489 55.5914 40.867C55.5643 40.7851 55.5372 40.7032 55.5011 40.6304C55.4741 40.5486 55.4289 40.4849 55.3928 40.403C55.3567 40.3211 55.3206 40.2483 55.2845 40.1755C55.2394 40.1027 55.1943 40.039 55.1582 39.9663C55.1221 39.8935 55.0679 39.8207 55.0228 39.7479C54.9776 39.6751 54.9235 39.6205 54.8784 39.5568C54.8332 39.4931 54.7791 39.4203 54.7249 39.3476C54.6708 39.2839 54.6166 39.2293 54.5625 39.1747C54.5083 39.1201 54.4451 39.0473 54.391 38.9836C54.3278 38.9199 54.2736 38.8744 54.2105 38.8198C54.1473 38.7653 54.0841 38.7016 54.0209 38.647C53.9577 38.5924 53.8855 38.5469 53.8224 38.5014C53.7592 38.4559 53.687 38.4013 53.6238 38.3558C53.5516 38.3103 53.4794 38.2648 53.3981 38.2193C53.3259 38.1738 53.2628 38.1284 53.1906 38.092C53.1183 38.0556 53.0371 38.0192 52.9559 37.9737C52.8747 37.9282 52.8115 37.9009 52.7393 37.8736C52.6671 37.8463 52.5678 37.8099 52.4775 37.7735C52.3873 37.7462 52.3331 37.7189 52.2609 37.6916C52.1616 37.6643 52.0623 37.637 51.9631 37.6097C51.8999 37.5915 51.8367 37.5733 51.7645 37.5551C51.6562 37.537 51.5479 37.5188 51.4396 37.5097C51.3764 37.5006 51.3132 37.4915 51.25 37.4824C51.0785 37.4642 50.907 37.4551 50.7265 37.4551C47.8654 37.4551 45.5367 39.8025 45.5367 42.6867H38.614V33.9703H48.1271C48.3528 33.9703 48.5784 33.8793 48.7409 33.7156L50.9883 31.45C51.927 31.905 52.8476 32.4054 53.7321 32.9604C53.8314 33.0241 53.9487 33.0696 54.0661 33.0878L59.3822 33.8521V34.8438Z" fill="#E5B66C"/>
</g>
<defs>
<clipPath id="clip0">
<rect width="51.898" height="20.9266" fill="white" transform="translate(9.20816 26.9924)"/>
</clipPath>
</defs>
</svg>
