<svg width="60" height="53" viewBox="0 0 60 53" fill="none" xmlns="http://www.w3.org/2000/svg">
<g clip-path="url(#clip0)">
<path d="M39.1562 49.1406C39.1562 49.957 39.8242 50.625 40.6406 50.625C41.457 50.625 42.125 49.957 42.125 49.1406C42.125 48.3242 41.457 47.6562 40.6406 47.6562C39.8242 47.6562 39.1562 48.3242 39.1562 49.1406ZM40.9375 49.1406C40.9375 49.3039 40.8039 49.4375 40.6406 49.4375C40.4773 49.4375 40.3438 49.3039 40.3438 49.1406C40.3438 48.9773 40.4773 48.8438 40.6406 48.8438C40.8039 48.8438 40.9375 48.9773 40.9375 49.1406Z" fill="#E5B66C"/>
<path d="M16.5938 20.3364C16.2672 20.3364 16 20.6036 16 20.9302C16 21.2567 16.2672 21.5239 16.5938 21.5239V23.3052C16.5938 28.2333 19.2211 32.5603 23.1473 34.9649L17.2172 52.2134C17.2023 52.2431 17.2098 52.2728 17.2023 52.3099C17.1949 52.3396 17.1801 52.3767 17.1801 52.4063C17.1801 52.4138 17.1875 52.4212 17.1875 52.4286C17.1875 52.4731 17.2023 52.5103 17.2098 52.5548C17.2172 52.5919 17.2246 52.6216 17.2395 52.6587C17.2543 52.6958 17.2766 52.7181 17.2988 52.7478C17.3211 52.7774 17.3434 52.8145 17.3656 52.8368C17.3879 52.8591 17.4176 52.8739 17.4473 52.8962C17.4844 52.9185 17.5215 52.9481 17.5586 52.963C17.566 52.963 17.566 52.9704 17.5734 52.9704C17.6402 52.9927 17.707 53.0001 17.7664 53.0001H20.1414C20.2156 53.0001 20.2824 52.9853 20.3492 52.9556C20.3715 52.9481 20.3938 52.9333 20.4086 52.9259C20.4531 52.9036 20.4902 52.8813 20.5199 52.8517C20.5422 52.8368 20.557 52.822 20.5719 52.7997C20.6016 52.7626 20.6312 52.7255 20.6535 52.681C20.6684 52.6587 20.6758 52.6438 20.6906 52.6216C20.6906 52.6142 20.698 52.6067 20.698 52.5993L26.0938 36.9614V40.5313C26.0938 41.511 26.8953 42.3126 27.875 42.3126H32.625C33.6047 42.3126 34.4062 41.511 34.4062 40.5313V36.9466L37.7312 46.6173C37.1449 47.2927 36.7812 48.1759 36.7812 49.1407C36.7812 51.2708 38.5105 53.0001 40.6406 53.0001C42.7707 53.0001 44.5 51.2708 44.5 49.1407C44.5 47.0997 42.9117 45.4298 40.9004 45.2962L37.3527 34.9649C41.2789 32.5603 43.9062 28.2333 43.9062 23.3052V21.5239C44.2328 21.5239 44.5 21.2567 44.5 20.9302C44.5 20.6036 44.2328 20.3364 43.9062 20.3364H16.5938ZM42.7188 22.7114H17.7812V21.5239H42.7188V22.7114ZM25.1734 35.9817L19.7332 51.8126H18.6125L24.2012 35.5438C24.5203 35.6997 24.8469 35.8481 25.1734 35.9817ZM30.25 36.9614C31.2668 36.9614 32.2613 36.8427 33.2188 36.6349V38.1563H27.2812V36.6349C28.2387 36.8501 29.2332 36.9614 30.25 36.9614ZM32.625 41.1251H27.875C27.5484 41.1251 27.2812 40.8579 27.2812 40.5313V39.3438H33.2188V40.5313C33.2188 40.8579 32.9516 41.1251 32.625 41.1251ZM43.3125 49.1407C43.3125 50.6103 42.1102 51.8126 40.6406 51.8126C39.1637 51.8126 37.9688 50.6103 37.9688 49.1407C37.9688 47.6638 39.1711 46.4688 40.6406 46.4688C42.1176 46.4688 43.3125 47.6638 43.3125 49.1407ZM39.6906 45.4075C39.3418 45.4966 39.0152 45.6302 38.7109 45.8083L35.334 35.9817C35.6605 35.8481 35.9871 35.7071 36.3062 35.5513L39.6906 45.4075ZM30.25 35.7739C23.5777 35.7739 18.1227 30.497 17.8109 23.8989H42.6891C42.3773 30.497 36.9297 35.7739 30.25 35.7739Z" fill="#E5B66C"/>
<path d="M21.1804 15.2001C20.9652 14.9552 20.5866 14.933 20.3417 15.1482C20.3046 15.1853 19.3323 16.0833 20.223 17.6642C20.6238 18.3767 20.3566 18.6958 20.3491 18.7107C20.1042 18.9259 20.082 19.3044 20.2972 19.5494C20.4159 19.683 20.5792 19.7498 20.7425 19.7498C20.8835 19.7498 21.0245 19.6978 21.1359 19.6013C21.1804 19.5642 22.1527 18.6736 21.262 17.0853C20.8687 16.3876 21.1136 16.0685 21.1507 16.024C21.3808 15.8013 21.3956 15.4376 21.1804 15.2001Z" fill="#E5B66C"/>
<path d="M27.118 15.2001C26.9028 14.9552 26.5243 14.933 26.2793 15.1482C26.2348 15.1853 25.2625 16.0759 26.1532 17.6642C26.5539 18.3767 26.2868 18.6958 26.2793 18.7107C26.0344 18.9259 26.0121 19.3044 26.2274 19.5494C26.3461 19.683 26.5094 19.7498 26.6727 19.7498C26.8137 19.7498 26.9547 19.6978 27.0661 19.6013C27.1106 19.5642 28.0828 18.6736 27.1922 17.0853C26.7989 16.3876 27.0438 16.0685 27.0809 16.024C27.3184 15.8013 27.3332 15.4376 27.118 15.2001Z" fill="#E5B66C"/>
<path d="M33.0554 15.2001C32.8402 14.9552 32.4616 14.933 32.2167 15.1482C32.1722 15.1853 31.1999 16.0759 32.0905 17.6642C32.4913 18.3767 32.2241 18.6958 32.2167 18.7107C31.9718 18.9259 31.9495 19.3044 32.1648 19.5494C32.2835 19.683 32.4468 19.7498 32.6101 19.7498C32.7511 19.7498 32.8921 19.6978 33.0034 19.6013C33.048 19.5642 34.0202 18.6736 33.1296 17.0853C32.7362 16.3876 32.9812 16.0685 33.0183 16.024C33.2558 15.8013 33.2706 15.4376 33.0554 15.2001Z" fill="#E5B66C"/>
<path d="M38.9929 15.2001C38.7777 14.9552 38.3991 14.933 38.1542 15.1482C38.1097 15.1853 37.1374 16.0759 38.028 17.6642C38.4288 18.3767 38.1616 18.6958 38.1542 18.7107C37.9093 18.9259 37.887 19.3044 38.1023 19.5494C38.221 19.683 38.3843 19.7498 38.5476 19.7498C38.6886 19.7498 38.8296 19.6978 38.9409 19.6013C38.9855 19.5642 39.9577 18.6736 39.0671 17.0853C38.6737 16.3876 38.9187 16.0685 38.9558 16.024C39.1933 15.8013 39.2081 15.4376 38.9929 15.2001Z" fill="#E5B66C"/>
</g>
<rect width="59" height="1.5" rx="0.75" fill="#E5B66C"/>
<rect y="3" width="59" height="1.5" rx="0.75" fill="#E5B66C"/>
<rect y="6" width="59" height="1.5" rx="0.75" fill="#E5B66C"/>
<rect x="58" y="53" width="53" height="1.5" rx="0.75" transform="rotate(-90 58 53)" fill="#E5B66C"/>
<rect y="53" width="53" height="1.5" rx="0.75" transform="rotate(-90 0 53)" fill="#E5B66C"/>
<defs>
<clipPath id="clip0">
<rect width="28.5" height="38" fill="white" transform="translate(16 15)"/>
</clipPath>
</defs>
</svg>
