<svg width="60" height="53" viewBox="0 0 60 53" fill="none" xmlns="http://www.w3.org/2000/svg">
<path d="M50.3125 51.6349H48.9375V38.6667V22.2857V20.2381C48.9375 19.8627 48.6281 19.5556 48.25 19.5556H29.7047V18.873H33.125C34.2594 18.873 35.1875 17.9516 35.1875 16.8254V14.7778C35.1875 13.6516 34.2594 12.7302 33.125 12.7302H31.75C31.3719 12.7302 31.0625 12.423 31.0625 12.0476V12.0391C31.0625 12.0391 31.0625 12.0306 31.0625 12.022C31.0625 10.9129 30.143 10 29.0172 10H26.25C24.3508 10 22.8125 11.5357 22.8125 13.4127V15.4603C22.8125 17.3458 24.3508 18.873 26.25 18.873C26.25 18.873 26.25 18.873 26.2586 18.873H28.3383V19.5556H9.75C9.37188 19.5556 9.0625 19.8627 9.0625 20.2381V22.2857V22.2942V38.6667V51.6349H7.6875C7.30937 51.6349 7 51.9421 7 52.3175C7 52.6929 7.30937 53 7.6875 53H50.3125C50.6906 53 51 52.6929 51 52.3175C51 51.9421 50.6906 51.6349 50.3125 51.6349ZM26.25 11.3651H29.0172C29.3867 11.3651 29.6875 11.6637 29.6875 12.0306V12.0391C29.6875 12.0391 29.6875 12.0476 29.6875 12.0562C29.6875 13.1823 30.6156 14.1038 31.75 14.1038H33.125C33.5031 14.1038 33.8125 14.4109 33.8125 14.7863C33.8125 15.1617 33.5031 15.4688 33.125 15.4688H26.25C25.1156 15.4688 24.1875 14.5474 24.1875 13.4212C24.1875 12.2865 25.1156 11.3651 26.25 11.3651ZM24.3508 16.2538C24.8922 16.6121 25.5453 16.8254 26.25 16.8254H33.125C33.125 16.8254 33.125 16.8254 33.1336 16.8254C33.3742 16.8254 33.5977 16.7742 33.8125 16.6974V16.8254C33.8125 17.2008 33.5031 17.5079 33.125 17.5079H29.0344C29.0258 17.5079 29.0258 17.5079 29.0172 17.5079C29.0086 17.5079 29.0086 17.5079 29 17.5079H26.25C26.25 17.5079 26.25 17.5079 26.2414 17.5079C25.3906 17.5079 24.6602 16.9875 24.3508 16.2538ZM47.5625 20.9206V21.6032H10.4375V20.9206H47.5625ZM10.4375 22.9683H11.125V37.9841H10.4375V22.9683ZM45.5 22.9683V23.6508H29C28.6219 23.6508 28.3125 23.9579 28.3125 24.3333V37.9841H24.1961V37.3016C24.1961 37.2931 24.1961 37.2931 24.1961 37.2845C24.1875 36.1583 23.268 35.254 22.1336 35.254V34.5544C22.9672 33.9315 23.5086 32.9504 23.5086 31.8413C23.5945 31.8413 23.6805 31.8242 23.7664 31.7901C23.7664 31.7901 23.7664 31.7901 23.775 31.7901C23.8523 31.756 23.9125 31.7133 23.9727 31.6621C23.9813 31.6536 23.9898 31.6536 23.9984 31.645C24.0586 31.5853 24.1102 31.5085 24.1445 31.4317C24.1531 31.4062 24.1531 31.3806 24.1617 31.3635C24.1789 31.3038 24.1961 31.2355 24.1961 31.1758C24.1961 31.1758 24.1961 31.1758 24.1961 31.1673C24.1961 31.1161 24.1789 31.0734 24.1703 31.0308C24.1617 30.9881 24.1617 30.954 24.1445 30.9113V30.9028C24.1445 30.9028 24.1445 30.9028 24.1445 30.8942C24.1187 30.826 23.9383 30.4335 23.5086 30.0069V29.7937C23.5086 27.9081 21.9617 26.381 20.0711 26.381C18.1805 26.381 16.6336 27.9081 16.6336 29.7937V30.0069C16.2039 30.4335 16.032 30.8175 15.9977 30.8942C15.9977 30.8942 15.9977 30.8942 15.9977 30.9028V30.9113C15.9805 30.954 15.9805 31.0052 15.9719 31.0478C15.9633 31.0905 15.9461 31.1246 15.9461 31.1673C15.9461 31.1673 15.9461 31.1673 15.9461 31.1758C15.9461 31.227 15.9633 31.2696 15.9719 31.3123C16.0406 31.6194 16.2984 31.8498 16.6336 31.8498C16.6336 32.9589 17.1836 33.9401 18.0086 34.5629V35.2625C16.8742 35.2625 15.9461 36.1839 15.9461 37.3101V37.9927H12.5V22.9683H45.5ZM47.5625 22.9683V37.9841H46.875V22.9683H47.5625ZM43.3086 37.9841C43.3859 37.7708 43.4375 37.5405 43.4375 37.3016C43.4375 36.1754 42.5094 35.254 41.375 35.254H35.1875C34.2938 35.254 33.5375 35.8256 33.2539 36.619H33.125C32.7469 36.619 32.4375 36.9262 32.4375 37.3016C32.4375 37.677 32.7383 37.9756 33.1078 37.9841H29.6875V34.5714H45.5V37.9841H43.3086ZM39.9914 37.9841C39.6133 37.9841 39.3125 37.677 39.3125 37.3016C39.3125 36.9262 39.6219 36.619 40 36.619H41.375C41.7531 36.619 42.0625 36.9262 42.0625 37.3016C42.0625 37.677 41.7617 37.9756 41.3836 37.9841H39.9914ZM35.1789 37.9841C34.8008 37.9841 34.5 37.677 34.5 37.3016C34.5 36.9262 34.8094 36.619 35.1875 36.619H38.0664C37.9891 36.8323 37.9375 37.0627 37.9375 37.3016C37.9375 37.5405 37.9891 37.7708 38.0664 37.9841H35.1789ZM45.5 25.0159V28.4286H42.75C43.1281 28.4286 43.4375 28.1214 43.4375 27.746C43.4375 27.3706 43.1281 27.0635 42.75 27.0635H42.6211C42.3375 26.27 41.5812 25.6984 40.6875 25.6984H34.5C33.3656 25.6984 32.4375 26.6198 32.4375 27.746C32.4375 27.9849 32.4891 28.2153 32.5664 28.4286H29.6875V25.0159H45.5ZM33.4773 33.1893C33.2883 33.1893 33.1422 33.0357 33.1422 32.8565C33.1422 32.6688 33.2969 32.5238 33.4773 32.5238H34.8523C35.0328 32.5238 35.1875 32.6688 35.1875 32.8565C35.1875 32.8565 35.1875 32.8565 35.1875 32.8651C35.1875 33.0442 35.0328 33.1978 34.8523 33.1978C34.8266 33.1978 34.8094 33.2064 34.7836 33.2149H33.5461C33.5203 33.2064 33.4945 33.1893 33.4773 33.1893ZM38.2727 32.5238C38.4617 32.5238 38.6078 32.6774 38.6078 32.8565C38.6078 33.0442 38.4531 33.1893 38.2727 33.1893C38.2469 33.1893 38.2297 33.1978 38.2039 33.2064H36.9664C36.9406 33.2064 36.9234 33.1893 36.8977 33.1893C36.7172 33.1893 36.5625 33.0442 36.5625 32.8565C36.5625 32.8565 36.5625 32.8565 36.5625 32.848C36.5625 32.8395 36.5625 32.848 36.5625 32.848C36.5625 32.6688 36.7172 32.5153 36.8977 32.5153L38.2727 32.5238ZM41.693 32.5238C41.882 32.5238 42.0281 32.6774 42.0281 32.8565C42.0281 33.0442 41.8734 33.1893 41.693 33.1893C41.6672 33.1893 41.65 33.1978 41.6242 33.2064H40.3867C40.3609 33.2064 40.3438 33.1893 40.318 33.1893C40.1289 33.1893 39.9828 33.0357 39.9828 32.8565C39.9828 32.6688 40.1375 32.5238 40.318 32.5238H41.693ZM41.693 31.1587H40.318C39.9313 31.1587 39.5789 31.2867 39.2953 31.5085C39.0117 31.2952 38.6594 31.1587 38.2727 31.1587H36.8977C36.5109 31.1587 36.1586 31.2867 35.875 31.5C35.5914 31.2867 35.2391 31.1587 34.8523 31.1587H33.4773C32.532 31.1587 31.7672 31.9181 31.7672 32.8565C31.7672 32.976 31.7844 33.0954 31.8016 33.2064H29.6875V29.7937H45.5V33.2064H43.3688C43.3945 33.0954 43.4031 32.976 43.4031 32.8565C43.4031 31.9181 42.6383 31.1587 41.693 31.1587ZM34.5 28.4286C34.1219 28.4286 33.8125 28.1214 33.8125 27.746C33.8125 27.3706 34.1219 27.0635 34.5 27.0635H35.875C36.2531 27.0635 36.5625 27.3706 36.5625 27.746C36.5625 28.1214 36.2531 28.4286 35.875 28.4286H34.5ZM40.6875 27.0635C41.0656 27.0635 41.375 27.3706 41.375 27.746C41.375 28.1214 41.0656 28.4286 40.6875 28.4286H37.8172C37.8945 28.2153 37.9461 27.9849 37.9461 27.746C37.9461 27.5071 37.8945 27.2768 37.8172 27.0635H40.6875ZM17.3211 37.2931C17.3211 36.9177 17.6219 36.619 18 36.6105H18.0086H18.5414L19.7617 37.2163C19.7703 37.2248 19.7789 37.2163 19.7961 37.2248C19.882 37.2589 19.9766 37.2931 20.0711 37.2931C20.1313 37.2931 20.1828 37.2845 20.243 37.2675C20.2602 37.2589 20.2773 37.2504 20.2945 37.2504C20.3203 37.2419 20.3461 37.2333 20.3719 37.2248L21.5922 36.619H22.125C22.125 36.619 22.125 36.619 22.1336 36.619C22.5117 36.619 22.8125 36.9262 22.8125 37.3016C22.8125 37.3016 22.8125 37.3016 22.8125 37.3101V37.9927H17.3125V37.2931H17.3211ZM20.0711 28.7613C19.2977 28.7613 18.6617 28.8808 18.1461 29.0685C18.4383 28.2921 19.1945 27.7375 20.0711 27.7375C20.9477 27.7375 21.7039 28.2921 21.9961 29.0685C21.4805 28.8893 20.8445 28.7613 20.0711 28.7613ZM21.7984 30.4762H18.3438C18.7563 30.28 19.3148 30.1349 20.0711 30.1349C20.8273 30.1349 21.3859 30.28 21.7984 30.4762ZM22.1336 31.8413V31.8498C22.125 32.976 21.2055 33.8804 20.0711 33.8804C18.9367 33.8804 18.0086 32.9589 18.0086 31.8327H22.1336V31.8413ZM20.0711 35.2454C20.3031 35.2454 20.5352 35.2198 20.7586 35.1772V35.5014L20.0711 35.8427L19.3836 35.5014V35.1772C19.607 35.2284 19.8391 35.2454 20.0711 35.2454ZM10.4375 39.3492H35.1703C35.1789 39.3492 35.1789 39.3492 35.1875 39.3492C35.1875 39.3492 35.1875 39.3492 35.1961 39.3492H39.9914C40 39.3492 40 39.3492 40.0086 39.3492C40.0086 39.3492 40.0086 39.3492 40.0172 39.3492H41.375H41.3836C41.3922 39.3492 41.3922 39.3492 41.4008 39.3492H47.5625V40.7143H10.4375V39.3492ZM47.5625 42.0794V43.4444H10.4375V42.0794H47.5625ZM47.5625 44.8095V46.1746H10.4375V44.8095H47.5625ZM10.4375 47.5397H47.5625V48.9048H10.4375V47.5397ZM10.4375 50.2698H47.5625V51.6349H10.4375V50.2698Z" fill="#E5B66C"/>
<rect width="59" height="1.5" rx="0.75" fill="#E5B66C"/>
<rect y="3" width="59" height="1.5" rx="0.75" fill="#E5B66C"/>
<rect y="6" width="59" height="1.5" rx="0.75" fill="#E5B66C"/>
<rect x="58" y="53" width="53" height="1.5" rx="0.75" transform="rotate(-90 58 53)" fill="#E5B66C"/>
<rect y="53" width="53" height="1.5" rx="0.75" transform="rotate(-90 0 53)" fill="#E5B66C"/>
</svg>
