<svg width="49" height="60" viewBox="0 0 49 60" fill="none" xmlns="http://www.w3.org/2000/svg">
<path d="M45.9375 60H2.8125C2.29688 60 1.875 59.5781 1.875 59.0625V56.25C1.875 55.7344 2.29688 55.3125 2.8125 55.3125H45.9375C46.4531 55.3125 46.875 55.7344 46.875 56.25V59.0625C46.875 59.5781 46.4531 60 45.9375 60ZM3.75 58.125H45V57.1875H3.75V58.125Z" fill="#E5B66C"/>
<path d="M7.5 57.1875C6.98438 57.1875 6.5625 56.7656 6.5625 56.25V19.6875C6.5625 19.1719 6.98438 18.75 7.5 18.75C8.01563 18.75 8.4375 19.1719 8.4375 19.6875V56.25C8.4375 56.7656 8.02735 57.1875 7.5 57.1875Z" fill="#E5B66C"/>
<path d="M5.625 22.5C4.07812 22.5 2.8125 21.2344 2.8125 19.6875C2.8125 18.1406 4.07812 16.875 5.625 16.875C7.17188 16.875 8.4375 18.1406 8.4375 19.6875C8.4375 20.2031 8.01562 20.625 7.5 20.625C6.98438 20.625 6.5625 20.2031 6.5625 19.6875C6.5625 19.1719 6.14062 18.75 5.625 18.75C5.10938 18.75 4.6875 19.1719 4.6875 19.6875C4.6875 20.2031 5.10938 20.625 5.625 20.625C6.14062 20.625 6.5625 21.0469 6.5625 21.5625C6.5625 22.0781 6.15234 22.5 5.625 22.5Z" fill="#E5B66C"/>
<path d="M18.75 57.1875C18.2344 57.1875 17.8125 56.7656 17.8125 56.25V19.6875C17.8125 19.1719 18.2344 18.75 18.75 18.75C19.2656 18.75 19.6875 19.1719 19.6875 19.6875V56.25C19.6875 56.7656 19.2656 57.1875 18.75 57.1875Z" fill="#E5B66C"/>
<path d="M30 57.1878C29.4844 57.1878 29.0625 56.7659 29.0625 56.2503V19.6174C29.0625 19.1018 29.4844 18.6799 30 18.6799C30.5156 18.6799 30.9375 19.1018 30.9375 19.6174V56.2503C30.9375 56.7659 30.5156 57.1878 30 57.1878Z" fill="#E5B66C"/>
<path d="M41.25 57.1875C40.7344 57.1875 40.3125 56.7656 40.3125 56.25V19.6875C40.3125 19.1719 40.7344 18.75 41.25 18.75C41.7656 18.75 42.1875 19.1719 42.1875 19.6875V56.25C42.1875 56.7656 41.7656 57.1875 41.25 57.1875Z" fill="#E5B66C"/>
<path d="M43.125 22.5C42.6094 22.5 42.1875 22.0781 42.1875 21.5625C42.1875 21.0469 42.6094 20.625 43.125 20.625C43.6406 20.625 44.0625 20.2031 44.0625 19.6875C44.0625 19.1719 43.6406 18.75 43.125 18.75C42.6094 18.75 42.1875 19.1719 42.1875 19.6875C42.1875 20.2031 41.7656 20.625 41.25 20.625C40.7344 20.625 40.3125 20.2031 40.3125 19.6875C40.3125 18.1406 41.5781 16.875 43.125 16.875C44.6719 16.875 45.9375 18.1406 45.9375 19.6875C45.9375 21.2344 44.6719 22.5 43.125 22.5Z" fill="#E5B66C"/>
<path d="M11.25 57.1875C10.7344 57.1875 10.3125 56.7656 10.3125 56.25V43.125C10.3125 42.6094 10.7344 42.1875 11.25 42.1875C11.7656 42.1875 12.1875 42.6094 12.1875 43.125V56.25C12.1875 56.7656 11.7656 57.1875 11.25 57.1875Z" fill="#E5B66C"/>
<path d="M22.5 57.1875C21.9844 57.1875 21.5625 56.7656 21.5625 56.25V43.125C21.5625 42.6094 21.9844 42.1875 22.5 42.1875C23.0156 42.1875 23.4375 42.6094 23.4375 43.125V56.25C23.4375 56.7656 23.0156 57.1875 22.5 57.1875Z" fill="#E5B66C"/>
<path d="M26.25 57.1875C25.7344 57.1875 25.3125 56.7656 25.3125 56.25V43.125C25.3125 42.6094 25.7344 42.1875 26.25 42.1875C26.7656 42.1875 27.1875 42.6094 27.1875 43.125V56.25C27.1875 56.7656 26.7656 57.1875 26.25 57.1875Z" fill="#E5B66C"/>
<path d="M37.5 57.1875C36.9844 57.1875 36.5625 56.7656 36.5625 56.25V43.125C36.5625 42.6094 36.9844 42.1875 37.5 42.1875C38.0156 42.1875 38.4375 42.6094 38.4375 43.125V56.25C38.4375 56.7656 38.0156 57.1875 37.5 57.1875Z" fill="#E5B66C"/>
<path d="M42.1875 44.0625H6.5625C6.04688 44.0625 5.625 43.6406 5.625 43.125C5.625 42.6094 6.04688 42.1875 6.5625 42.1875H42.1875C42.7031 42.1875 43.125 42.6094 43.125 43.125C43.125 43.6406 42.7031 44.0625 42.1875 44.0625Z" fill="#E5B66C"/>
<path d="M47.8125 18.75H0.9375C0.421875 18.75 0 18.3281 0 17.8125C0 17.2969 0.421875 16.875 0.9375 16.875H47.8125C48.3281 16.875 48.75 17.2969 48.75 17.8125C48.75 18.3281 48.3281 18.75 47.8125 18.75Z" fill="#E5B66C"/>
<path d="M0.937863 18.7507C0.644895 18.7507 0.363644 18.61 0.176144 18.3639C-0.128543 17.9421 -0.0347931 17.3561 0.387082 17.0514L23.8246 0.17645C24.2465 -0.128238 24.8324 -0.0344879 25.1371 0.387387C25.4418 0.809262 25.348 1.3952 24.9261 1.69989L1.48864 18.5749C1.32458 18.6921 1.12536 18.7507 0.937863 18.7507Z" fill="#E5B66C"/>
<path d="M47.8123 18.7502C47.6248 18.7502 47.4373 18.6916 47.2615 18.5744L23.824 1.6994C23.4021 1.39471 23.3084 0.808774 23.6131 0.386899C23.9178 -0.0349762 24.5037 -0.128726 24.9256 0.175961L48.3631 17.051C48.785 17.3556 48.8787 17.9416 48.574 18.3635C48.3865 18.6096 48.1053 18.7502 47.8123 18.7502Z" fill="#E5B66C"/>
<path d="M39.9958 13.125H8.75363C8.23801 13.125 7.81613 12.7031 7.81613 12.1875C7.81613 11.6719 8.23801 11.25 8.75363 11.25H40.0075C40.5232 11.25 40.945 11.6719 40.945 12.1875C40.945 12.7031 40.5232 13.125 39.9958 13.125Z" fill="#E5B66C"/>
<path d="M32.1911 7.5H16.5582C16.0426 7.5 15.6207 7.07812 15.6207 6.5625C15.6207 6.04688 16.0426 5.625 16.5582 5.625H32.1793C32.695 5.625 33.1168 6.04688 33.1168 6.5625C33.1168 7.07812 32.7067 7.5 32.1911 7.5Z" fill="#E5B66C"/>
<path d="M16.875 22.5C15.3281 22.5 14.0625 21.2344 14.0625 19.6875C14.0625 18.1406 15.3281 16.875 16.875 16.875C18.4219 16.875 19.6875 18.1406 19.6875 19.6875C19.6875 20.2031 19.2656 20.625 18.75 20.625C18.2344 20.625 17.8125 20.2031 17.8125 19.6875C17.8125 19.1719 17.3906 18.75 16.875 18.75C16.3594 18.75 15.9375 19.1719 15.9375 19.6875C15.9375 20.2031 16.3594 20.625 16.875 20.625C17.3906 20.625 17.8125 21.0469 17.8125 21.5625C17.8125 22.0781 17.3906 22.5 16.875 22.5Z" fill="#E5B66C"/>
<path d="M31.875 22.5C31.3594 22.5 30.9375 22.0781 30.9375 21.5625C30.9375 21.0469 31.3594 20.625 31.875 20.625C32.3906 20.625 32.8125 20.2031 32.8125 19.6875C32.8125 19.1719 32.3906 18.75 31.875 18.75C31.3594 18.75 30.9375 19.1719 30.9375 19.6875C30.9375 20.2031 30.5156 20.625 30 20.625C29.4844 20.625 29.0625 20.2031 29.0625 19.6875C29.0625 18.1406 30.3281 16.875 31.875 16.875C33.4219 16.875 34.6875 18.1406 34.6875 19.6875C34.6875 21.2344 33.4219 22.5 31.875 22.5Z" fill="#E5B66C"/>
<path d="M18.75 22.5H16.875C16.3594 22.5 15.9375 22.0781 15.9375 21.5625C15.9375 21.0469 16.3594 20.625 16.875 20.625H18.75C19.2656 20.625 19.6875 21.0469 19.6875 21.5625C19.6875 22.0781 19.2656 22.5 18.75 22.5Z" fill="#E5B66C"/>
<path d="M18.75 22.5C18.2344 22.5 17.8125 22.0781 17.8125 21.5625C17.8125 21.0469 18.2344 20.625 18.75 20.625C20.2969 20.625 21.5625 19.3594 21.5625 17.8125C21.5625 17.2969 21.9844 16.875 22.5 16.875C23.0156 16.875 23.4375 17.2969 23.4375 17.8125C23.4375 20.4023 21.3398 22.5 18.75 22.5Z" fill="#E5B66C"/>
<path d="M18.75 22.5C18.2344 22.5 17.8125 22.0781 17.8125 21.5625C17.8125 21.0469 18.2344 20.625 18.75 20.625C20.2969 20.625 21.5625 19.3594 21.5625 17.8125C21.5625 17.2969 21.9844 16.875 22.5 16.875C23.0156 16.875 23.4375 17.2969 23.4375 17.8125C23.4375 20.4023 21.3398 22.5 18.75 22.5Z" fill="#E5B66C"/>
<path d="M31.875 22.5H30C29.4844 22.5 29.0625 22.0781 29.0625 21.5625C29.0625 21.0469 29.4844 20.625 30 20.625H31.875C32.3906 20.625 32.8125 21.0469 32.8125 21.5625C32.8125 22.0781 32.4023 22.5 31.875 22.5Z" fill="#E5B66C"/>
<path d="M30 22.5C27.4102 22.5 25.3125 20.4023 25.3125 17.8125C25.3125 17.2969 25.7344 16.875 26.25 16.875C26.7656 16.875 27.1875 17.2969 27.1875 17.8125C27.1875 19.3594 28.4531 20.625 30 20.625C30.5156 20.625 30.9375 21.0469 30.9375 21.5625C30.9375 22.0781 30.5273 22.5 30 22.5Z" fill="#E5B66C"/>
</svg>
