<svg width="67" height="51" viewBox="0 0 67 51" fill="none" xmlns="http://www.w3.org/2000/svg">
<path d="M63.5725 1.67413H3.20729C2.54328 1.67413 1.99999 1.29745 1.99999 0.837064C1.99999 0.376679 2.54328 0 3.20729 0H63.5725C64.2365 0 64.7798 0.376679 64.7798 0.837064C64.7798 1.29745 64.2365 1.67413 63.5725 1.67413Z" fill="#E5B66C"/>
<path d="M64.3542 4.70848C63.9226 4.70848 63.5695 4.35535 63.5695 3.92374C63.5695 3.49213 63.9226 3.13899 64.3542 3.13899C64.7858 3.13899 65.139 2.78585 65.139 2.35424C65.139 1.92263 64.7858 1.56949 64.3542 1.56949C63.9226 1.56949 63.5695 1.92263 63.5695 2.35424C63.5695 2.78585 63.2163 3.13899 62.7847 3.13899C62.3531 3.13899 62 2.78585 62 2.35424C62 1.05941 63.0594 0 64.3542 0C65.6491 0 66.7085 1.05941 66.7085 2.35424C66.7085 3.64908 65.6491 4.70848 64.3542 4.70848Z" fill="#E5B66C"/>
<path d="M3.99999 50.5C4.21874 50.5 4.70848 50.3594 4.70848 49.7863V2.22537C4.70848 1.55464 4.35535 1.00586 3.92374 1.00586C3.49213 1.00586 3.13899 1.55464 3.13899 2.22537V49.7863C3.13899 50.4062 3.49999 50.5 3.99999 50.5Z" fill="#E5B66C"/>
<path d="M62.8613 50.4941C63.0801 50.4941 63.5698 50.3535 63.5698 49.7805V2.21951C63.5698 1.54878 63.2167 1 62.7851 1C62.3535 1 62.0003 1.54878 62.0003 2.21951V49.7805C62.0003 50.4004 62.3613 50.4941 62.8613 50.4941Z" fill="#E5B66C"/>
<path d="M2.35424 4.70848C2.78585 4.70848 3.13899 4.35535 3.13899 3.92374C3.13899 3.49213 2.78585 3.13899 2.35424 3.13899C1.92263 3.13899 1.5695 2.78585 1.5695 2.35424C1.5695 1.92263 1.92263 1.56949 2.35424 1.56949C2.78585 1.56949 3.13899 1.92263 3.13899 2.35424C3.13899 2.78585 3.49213 3.13899 3.92374 3.13899C4.35535 3.13899 4.70848 2.78585 4.70848 2.35424C4.70848 1.05941 3.64908 0 2.35424 0C1.05941 0 9.53674e-07 1.05941 9.53674e-07 2.35424C9.53674e-07 3.64908 1.05941 4.70848 2.35424 4.70848Z" fill="#E5B66C"/>
<g clip-path="url(#clip0)">
<path d="M53.2866 26.0032H49.0032V24.2834C49.0032 24.1709 48.9871 23.1985 48.4808 22.1859C47.7817 20.7795 46.4396 20 44.7198 20C43 20 41.6579 20.7795 40.9507 22.1859C40.4444 23.1985 40.4283 24.1789 40.4283 24.2834V25.9952H36.9968V24.2834C36.9968 24.1709 36.9807 23.1985 36.4744 22.1859C35.7752 20.7795 34.4412 20 32.7134 20C30.9855 20 29.6515 20.7795 28.9443 22.1859C28.446 23.1985 28.4299 24.1789 28.4299 24.2834V25.9952H13.8599C13.3857 26.0032 13 26.389 13 26.8551V37.1256V42.269V49.1401C13 49.6143 13.3857 50 13.8599 50H53.2947C53.7688 50 54.1546 49.6143 54.1546 49.1401V37.1256V26.8551C54.1465 26.389 53.7608 26.0032 53.2866 26.0032ZM42.1481 24.2834C42.1481 24.2754 42.1642 23.6003 42.4857 22.9494C42.9036 22.1136 43.6349 21.7118 44.7198 21.7118C45.7886 21.7118 46.5119 22.1055 46.9298 22.9092C47.2754 23.5762 47.2914 24.2834 47.2914 24.2834V25.9952H42.1481V24.2834ZM30.1417 24.2834C30.1417 24.2754 30.1578 23.6003 30.4792 22.9494C30.8971 22.1136 31.6284 21.7118 32.7134 21.7118C33.7822 21.7118 34.5055 22.1055 34.9234 22.9092C35.2689 23.5762 35.285 24.2834 35.285 24.2834V25.9952H30.1417V24.2834ZM30.1417 27.715H40.4283V29.4267H30.1417V27.715ZM30.1417 31.1465H40.4283V32.8583H30.1417V31.1465ZM30.1417 34.5701H40.4283V37.0372L39.0943 36.3702C38.8532 36.2497 38.5719 36.2497 38.3308 36.3702L36.9968 37.0372L35.6627 36.3702C35.4216 36.2497 35.1404 36.2497 34.8993 36.3702L33.5652 37.0372L32.2312 36.3702C31.9901 36.2497 31.7088 36.2497 31.4677 36.3702L30.1337 37.0372L30.1417 34.5701ZM14.7117 27.715H28.4299V36.2898C28.3014 36.2898 28.1647 36.322 28.0442 36.3783L26.7101 37.0453L25.3761 36.3783C25.135 36.2577 24.8537 36.2577 24.6126 36.3783L23.2786 37.0453L21.9445 36.3783C21.7034 36.2577 21.4222 36.2577 21.1811 36.3783L19.847 37.0453L18.513 36.3783C18.2719 36.2577 17.9906 36.2577 17.7495 36.3783L16.3512 37.0774L14.7037 36.5309C14.7117 36.5309 14.7117 27.715 14.7117 27.715ZM52.4348 48.2882H14.7117V43.4744L16.1583 43.9566C16.3753 44.0289 16.6083 44.0129 16.8093 43.9084L18.1433 43.2414L19.4774 43.9084C19.7184 44.0289 19.9997 44.0289 20.2408 43.9084L21.5749 43.2414L22.9089 43.9084C23.15 44.0289 23.4313 44.0289 23.6724 43.9084L25.0064 43.2414L26.3405 43.9084C26.5816 44.0289 26.8628 44.0289 27.1039 43.9084L28.438 43.2414L29.772 43.9084C29.8926 43.9727 30.0292 43.9968 30.1578 43.9968C30.4712 43.9968 30.7766 43.82 30.9212 43.5226C31.1302 43.0967 30.9614 42.5824 30.5355 42.3734L28.8237 41.5135C28.5826 41.393 28.3014 41.393 28.0603 41.5135L26.7262 42.1806L25.3922 41.5135C25.1511 41.393 24.8698 41.393 24.6287 41.5135L23.2947 42.1806L21.9606 41.5135C21.7195 41.393 21.4382 41.393 21.1971 41.5135L19.8631 42.1806L18.5291 41.5135C18.288 41.393 18.0067 41.393 17.7656 41.5135L16.3673 42.2127L14.7198 41.6662V38.3311L16.1663 38.8133C16.3833 38.8856 16.6164 38.8695 16.8173 38.7651L18.1513 38.098L19.4854 38.7651C19.7265 38.8856 20.0078 38.8856 20.2488 38.7651L21.5829 38.098L22.9169 38.7651C23.158 38.8856 23.4393 38.8856 23.6804 38.7651L25.0145 38.098L26.3485 38.7651C26.5896 38.8856 26.8709 38.8856 27.112 38.7651L28.446 38.098L29.7801 38.7651C30.0212 38.8856 30.3024 38.8856 30.5435 38.7651L31.8776 38.098L33.2116 38.7651C33.4527 38.8856 33.734 38.8856 33.9751 38.7651L35.3091 38.098L36.6432 38.7651C36.8843 38.8856 37.1655 38.8856 37.4066 38.7651L38.7407 38.098L40.0747 38.7651C40.1953 38.8294 40.3239 38.8535 40.4605 38.8535C40.5891 38.8535 40.7257 38.8213 40.8462 38.7651L42.1803 38.098L43.5143 38.7651C43.7554 38.8856 44.0367 38.8856 44.2778 38.7651L45.6118 38.098L46.9459 38.7651C47.187 38.8856 47.4682 38.8856 47.7093 38.7651L49.0434 38.098L50.3774 38.7651C50.5783 38.8695 50.8194 38.8856 51.0284 38.8133L52.4749 38.3311V43.4664L52.0008 43.2253C51.7597 43.1047 51.4784 43.1047 51.2373 43.2253L49.9033 43.8923L48.5692 43.2253C48.3281 43.1047 48.0469 43.1047 47.8058 43.2253L46.4717 43.8923L45.1377 43.2253C44.8966 43.1047 44.6153 43.1047 44.3742 43.2253L43.0402 43.8923L41.7061 43.2253C41.465 43.1047 41.1838 43.1047 40.9427 43.2253L39.6086 43.8923L38.2746 43.2253C38.0335 43.1047 37.7522 43.1047 37.5111 43.2253L35.7993 44.0852C35.3734 44.2941 35.2046 44.8085 35.4136 45.2344C35.5663 45.5317 35.8636 45.7085 36.1771 45.7085C36.3056 45.7085 36.4342 45.6764 36.5628 45.6201L37.8969 44.9531L39.2309 45.6201C39.472 45.7407 39.7533 45.7407 39.9944 45.6201L41.3284 44.9531L42.6625 45.6201C42.9036 45.7407 43.1848 45.7407 43.4259 45.6201L44.76 44.9531L46.094 45.6201C46.3351 45.7407 46.6164 45.7407 46.8575 45.6201L48.1915 44.9531L49.5256 45.6201C49.7667 45.7407 50.0479 45.7407 50.289 45.6201L51.6231 44.9531L52.483 45.3791L52.4348 48.2882ZM50.7873 37.0774L49.389 36.3783C49.1479 36.2577 48.8666 36.2577 48.6255 36.3783L47.2914 37.0453L45.9574 36.3783C45.7163 36.2577 45.435 36.2577 45.1939 36.3783L43.8599 37.0453L42.5258 36.3783C42.4053 36.314 42.2767 36.2898 42.1401 36.2898V27.715H52.4267V36.5309L50.7873 37.0774Z" fill="#E5B66C"/>
</g>
<path d="M61.8654 7H5.13462C4.51058 7 4 6.55 4 6C4 5.45 4.51058 5 5.13462 5H61.8654C62.4894 5 63 5.45 63 6C63 6.55 62.4894 7 61.8654 7Z" fill="#E5B66C"/>
<path d="M61.8654 12H5.13462C4.51058 12 4 11.55 4 11C4 10.45 4.51058 10 5.13462 10H61.8654C62.4894 10 63 10.45 63 11C63 11.55 62.4894 12 61.8654 12Z" fill="#E5B66C"/>
<defs>
<clipPath id="clip0">
<rect width="41.1465" height="30" fill="white" transform="translate(13 20)"/>
</clipPath>
</defs>
</svg>
