<svg width="57" height="60" viewBox="0 0 57 60" fill="none" xmlns="http://www.w3.org/2000/svg">
<g clip-path="url(#clip0)">
<g clip-path="url(#clip1)">
<path d="M46.0935 29H43.6458C43.1945 29 42.8273 29.3672 42.8273 29.8185V38.6915C42.246 38.5385 41.8176 38.1943 41.5346 37.6512C41.2057 37.0163 41.1904 36.3432 41.1904 36.3432V29.8185C41.1904 29.3672 40.8232 29 40.3719 29C39.9359 29 39.5688 29.3672 39.5688 29.8185V33.7348C39.324 33.6125 39.1328 33.4289 38.9951 33.1611C38.7733 32.7404 38.758 32.2891 38.758 32.2585V29.8185C38.758 29.3672 38.3908 29 37.9395 29C37.4882 29 37.121 29.3672 37.121 29.8185V32.2662C37.121 32.3503 37.1287 33.0923 37.5111 33.8572C37.9318 34.6986 38.6509 35.2494 39.5688 35.4483V36.3432C39.5688 36.4426 39.5841 37.3758 40.066 38.3396C40.6244 39.4488 41.5882 40.1448 42.835 40.359V59.1913C42.835 59.6426 43.2021 60.0097 43.6534 60.0097H46.1012C46.5525 60.0097 46.9196 59.6426 46.9196 59.1913V29.8185C46.912 29.3672 46.5448 29 46.0935 29ZM45.2827 58.3728H44.4642V30.6293H45.2827V58.3728Z" fill="#E5B66C"/>
<path d="M18.5443 29C18.093 29 17.7259 29.3672 17.7259 29.8185V32.2585C17.7259 32.2891 17.7106 32.7404 17.4888 33.1611C17.3511 33.4212 17.1598 33.6125 16.9151 33.7348V29.8185C16.9151 29.3672 16.5479 29 16.0966 29C15.6453 29 15.2858 29.3672 15.2858 29.8185V34.7139V36.3432C15.2858 36.3509 15.2705 37.024 14.9416 37.6589C14.6586 38.202 14.2379 38.5385 13.6489 38.6992V29.8261C13.6489 29.3672 13.2894 29 12.8381 29H10.3903C9.93903 29 9.57187 29.3672 9.57187 29.8185V59.1913C9.57187 59.6426 9.93903 60.0097 10.3903 60.0097H12.8381C13.2894 60.0097 13.6565 59.6426 13.6565 59.1913V40.359C14.9033 40.1525 15.8748 39.4564 16.4255 38.3396C16.8998 37.3758 16.9151 36.4426 16.9151 36.3432V35.4406C17.833 35.2417 18.552 34.691 18.9727 33.8496C19.3552 33.0847 19.3628 32.3427 19.3628 32.2585V29.8108C19.3628 29.3672 18.9956 29 18.5443 29ZM11.2011 58.3728V30.6293H12.0196V58.3728H11.2011Z" fill="#E5B66C"/>
<path d="M35.5851 49.4003H34.7667V29.8185C34.7667 29.3672 34.3995 29 33.9482 29C33.4969 29 33.1374 29.3672 33.1374 29.8185V49.4003H23.3465V29.8185C23.3465 29.3672 22.9793 29 22.528 29C22.0767 29 21.7095 29.3672 21.7095 29.8185V49.4003H20.8987C20.4474 49.4003 20.0803 49.7675 20.0803 50.2188V52.6665C20.0803 53.1178 20.4474 53.485 20.8987 53.485H21.7172C21.7172 53.9363 22.0843 54.3035 22.5356 54.3035C22.9869 54.3035 23.3465 53.9287 23.3465 53.4774H33.1374C33.1374 53.9287 33.5045 54.2958 33.9558 54.2958C34.4071 54.2958 34.7743 53.9287 34.7743 53.4774H35.5851C36.0364 53.4774 36.4036 53.1102 36.4036 52.6589V50.2112C36.4036 49.7599 36.0364 49.4003 35.5851 49.4003ZM34.7667 51.8481H21.7172V51.0296H34.7743V51.8481H34.7667Z" fill="#E5B66C"/>
</g>
<rect x="6" y="60" width="45" height="1.5" rx="0.75" transform="rotate(-90 6 60)" fill="#E5B66C"/>
<rect x="49" y="60" width="45" height="1.5" rx="0.75" transform="rotate(-90 49 60)" fill="#E5B66C"/>
<path d="M7.2232 15.5L28.3 5.82524L49.3768 15.5H7.2232Z" stroke="#E5B66C" stroke-width="1.5"/>
</g>
<defs>
<clipPath id="clip0">
<rect width="56.5385" height="60" fill="white"/>
</clipPath>
<clipPath id="clip1">
<rect width="49.5587" height="39.2308" fill="white" transform="translate(3.46155 20.7693)"/>
</clipPath>
</defs>
</svg>
