<svg width="113" height="34" viewBox="0 0 113 34" fill="none" xmlns="http://www.w3.org/2000/svg">
<g clip-path="url(#clip0)">
<path d="M4.75705 31.525L1.46366 25.9924C1.31729 25.7012 1.17091 25.41 1.09773 25.1916C1.02454 24.9004 0.951353 24.682 0.951353 24.5364L0.146301 24.6092V23.6628H4.17156V24.4636C3.80563 24.4636 3.58607 24.4636 3.4397 24.6092C3.29332 24.682 3.14695 24.8276 3.14695 25.046C3.14695 25.2644 3.22014 25.4828 3.36651 25.774L4.68387 28.1763C4.83024 28.3947 4.97661 28.6859 5.12299 28.9771C5.26936 29.2683 5.41573 29.4866 5.5621 29.705L4.75705 31.525ZM2.92739 34.0001C2.63464 34.0001 2.41508 33.9273 2.12234 33.8545C1.90278 33.7817 1.68322 33.6361 1.53685 33.4177C1.39047 33.1993 1.31729 32.9809 1.31729 32.7625C1.31729 32.4713 1.39047 32.2529 1.53685 32.0346C1.68322 31.8162 1.97596 31.7434 2.26871 31.7434C2.56146 31.7434 2.78102 31.8162 2.92739 31.9618C3.07376 32.1074 3.14695 32.3257 3.14695 32.5441C3.14695 32.6169 3.14695 32.7625 3.07376 32.8353C3.00058 32.9081 3.00058 32.9809 2.92739 33.1265L3.00058 33.1993C3.00058 33.1993 3.07376 33.1993 3.14695 33.1993C3.36651 33.1993 3.65926 32.9809 3.87881 32.6169C3.952 32.4713 4.02519 32.3257 4.17156 32.1802C4.24475 31.9618 4.39112 31.7434 4.46431 31.4522C4.61068 31.161 4.75705 30.8698 4.90343 30.5058C5.0498 30.1418 5.19617 29.705 5.34255 29.2682C5.48892 28.8315 5.70848 28.3219 5.92804 27.8123C6.1476 27.3027 6.36716 26.6475 6.58672 26.0652C6.6599 25.774 6.80628 25.5556 6.87946 25.2644C6.95265 24.9732 7.09902 24.8276 7.2454 24.682L6.07441 24.7548V23.8084H9.22143V24.6092C8.92869 24.6092 8.70913 24.682 8.56275 24.7548C8.41638 24.8276 8.19682 24.9732 8.12363 25.1916C8.05045 25.1916 7.90407 25.5556 7.7577 25.9196L5.5621 31.525C5.34255 32.1802 5.0498 32.6897 4.75705 33.0537C4.46431 33.4177 4.17156 33.6361 3.87881 33.7817C3.58607 33.9273 3.29332 34.0001 2.92739 34.0001Z" fill="#E5B66C"/>
<path d="M13.2466 32.981C13.5393 32.981 13.7589 32.9082 13.9053 32.8354C14.0517 32.7626 14.1248 32.617 14.198 32.3986C14.2712 32.1802 14.2712 31.889 14.2712 31.5251V25.7013C14.2712 25.4829 14.2712 25.1917 14.2712 24.9733C14.2712 24.7549 14.2712 24.6093 14.2712 24.4637C14.1248 24.4637 13.9053 24.4637 13.6857 24.4637C13.4662 24.4637 13.3198 24.4637 13.1734 24.4637V23.5173C13.8321 23.5173 14.4176 23.5173 15.0763 23.5173C15.7349 23.5173 16.3936 23.5173 16.9791 23.5173C17.8574 23.5173 18.6624 23.5901 19.2479 23.8813C19.8334 24.1725 20.4189 24.4637 20.7116 24.9005C21.0044 25.3373 21.2239 25.9197 21.2239 26.6476C21.2239 27.0116 21.1507 27.4484 21.0044 27.8124C20.858 28.1764 20.5653 28.5404 20.2725 28.9043C19.9066 29.1955 19.4675 29.4867 18.882 29.7051C18.2965 29.9235 17.6378 29.9963 16.8327 30.0691C16.6864 30.0691 16.54 30.0691 16.3936 30.0691C16.2472 30.0691 16.1009 30.0691 15.9545 30.0691V31.5979C15.9545 31.889 15.9545 32.1074 15.9545 32.3258C15.9545 32.5442 15.9545 32.6898 15.8813 32.8354C16.0277 32.8354 16.1741 32.8354 16.3204 32.8354C16.4668 32.8354 16.6132 32.8354 16.7596 32.8354C16.9059 32.8354 17.0523 32.8354 17.1255 32.8354V33.7818H13.027V32.981H13.2466ZM16.1009 29.1227C16.2472 29.1227 16.3204 29.1227 16.4668 29.1227C16.6132 29.1227 16.6864 29.1227 16.8327 29.1227C17.345 29.1227 17.8573 29.0499 18.2233 28.8316C18.5892 28.6132 18.882 28.3948 19.1015 28.0308C19.3211 27.6668 19.3943 27.23 19.3943 26.7204C19.3943 26.2108 19.3211 25.8469 19.1747 25.5557C19.0283 25.2645 18.882 25.0461 18.6624 24.8277C18.4428 24.6093 18.2233 24.5365 17.9305 24.4637C17.6378 24.3909 17.4182 24.3909 17.1255 24.3909C16.9059 24.3909 16.6864 24.4637 16.54 24.5365C16.3936 24.6093 16.3204 24.7549 16.2472 24.9733C16.1741 25.1917 16.1009 25.4101 16.1009 25.7741V29.1227Z" fill="#E5B66C"/>
<path d="M24.5907 33.7817V32.9809C24.8834 32.9809 25.103 32.9081 25.2494 32.7625C25.3958 32.6169 25.5421 32.3985 25.6885 32.1073C25.7617 31.8161 25.9081 31.5249 26.0544 31.2338L28.9819 23.2988H29.7869L32.934 31.3794C33.0072 31.5249 33.0803 31.7433 33.1535 32.1073C33.2267 32.3985 33.2999 32.6897 33.2999 32.9081C33.4463 32.9081 33.5926 32.9081 33.8122 32.9081C33.9586 32.9081 34.1049 32.9081 34.2513 32.9081V33.8545H30.5188V33.0537C30.8116 33.0537 31.0311 32.9809 31.1043 32.8353C31.1775 32.6897 31.2507 32.5441 31.2507 32.3257C31.2507 32.1073 31.1775 31.8889 31.1043 31.6705L30.7384 30.6514L27.3718 30.7242L27.079 31.6705C27.0059 31.8161 26.9327 32.0345 26.8595 32.2529C26.7863 32.4713 26.7131 32.6169 26.6399 32.8353C26.7863 32.8353 27.0059 32.8353 27.2254 32.8353C27.445 32.8353 27.5913 32.8353 27.7377 32.8353V33.8545H24.5907V33.7817ZM27.5913 29.7778H30.3724L29.5674 27.6667C29.421 27.3027 29.3478 27.0115 29.2746 26.6475C29.2015 26.2835 29.0551 25.9923 28.9819 25.7011C28.9087 25.9195 28.8355 26.1379 28.7623 26.4291C28.6891 26.7203 28.5428 27.0843 28.3964 27.5211L27.5913 29.7778Z" fill="#E5B66C"/>
<path d="M38.9351 34.0001C38.4959 34.0001 38.0568 33.9273 37.7641 33.7089C37.4713 33.4905 37.325 33.1993 37.325 32.8353C37.325 32.5441 37.3981 32.2529 37.6177 32.0345C37.7641 31.8161 38.0568 31.7433 38.4227 31.7433C38.7155 31.7433 38.9351 31.8161 39.0814 31.9617C39.2278 32.1073 39.301 32.3257 39.301 32.5441C39.301 32.6897 39.2278 32.8353 39.1546 32.9809C39.2278 33.0537 39.301 33.0537 39.3742 33.0537C39.5205 33.0537 39.6669 32.9081 39.8865 32.6897C40.106 32.4713 40.2524 32.0345 40.472 31.5249C40.6915 31.0154 40.8379 30.2874 40.9843 29.4866C41.1307 28.613 41.2038 27.6667 41.2038 26.4291V24.6092H40.8379L39.5937 24.682V23.7356H47.4247V24.5364C47.132 24.5364 46.9856 24.6092 46.766 24.682C46.6196 24.7548 46.4733 24.9004 46.4733 25.1188C46.4001 25.3371 46.4001 25.6283 46.4001 25.9923V31.7433C46.4001 32.0345 46.4001 32.2529 46.4001 32.4713C46.4001 32.6897 46.4001 32.8353 46.3269 32.9809C46.4733 32.9809 46.6928 32.9809 46.9124 32.9809C47.1319 32.9809 47.2783 32.9809 47.4247 32.9809V33.9273H43.5458V33.1265C43.8386 33.1265 44.0581 33.0537 44.2045 32.9809C44.3509 32.9081 44.424 32.7625 44.4972 32.5441C44.5704 32.3257 44.5704 32.0345 44.5704 31.6705V24.4636H43.1067C42.7408 24.4636 42.5212 24.5364 42.3748 24.682C42.2285 24.8276 42.1553 25.046 42.1553 25.4099C42.1553 26.5019 42.0821 27.5211 41.9357 28.4674C41.8625 29.341 41.7161 30.1418 41.4966 30.8698C41.277 31.5249 41.0575 32.1073 40.8379 32.6169C40.5452 33.0537 40.2524 33.4177 39.9597 33.6361C39.6669 33.8545 39.301 34.0001 38.9351 34.0001Z" fill="#E5B66C"/>
<path d="M51.8893 33.7818V32.981C52.182 32.981 52.4016 32.9082 52.548 32.8354C52.6943 32.7626 52.7675 32.617 52.8407 32.3986C52.9139 32.1802 52.9139 31.889 52.9139 31.5251V25.7013C52.9139 25.4829 52.9139 25.1917 52.9139 24.9733C52.9139 24.7549 52.9139 24.6093 52.9139 24.4637C52.7675 24.4637 52.548 24.4637 52.3284 24.4637C52.1088 24.4637 51.9625 24.4637 51.8161 24.4637V23.5173H55.695V24.3181C55.4022 24.3181 55.2559 24.3909 55.0363 24.4637C54.8899 24.5365 54.8167 24.6821 54.7436 24.9005C54.6704 25.1189 54.6704 25.4101 54.6704 25.7741V28.1036H59.0616V25.7013C59.0616 25.4829 59.0616 25.1917 59.0616 24.9733C59.0616 24.7549 59.0616 24.6093 59.1348 24.4637C58.9884 24.4637 58.7688 24.4637 58.5493 24.4637C58.3297 24.4637 58.1833 24.4637 58.037 24.4637V23.5173H61.9158V24.3181C61.6231 24.3181 61.4767 24.3909 61.2572 24.4637C61.0376 24.5365 61.0376 24.6821 60.9644 24.9005C60.8912 25.1189 60.8912 25.4101 60.8912 25.7741V31.5251C60.8912 31.8162 60.8912 32.0346 60.8912 32.253C60.8912 32.4714 60.8912 32.617 60.818 32.7626C60.9644 32.7626 61.184 32.7626 61.4035 32.7626C61.6231 32.7626 61.7695 32.7626 61.9158 32.7626V33.709H58.037V32.9082C58.3297 32.9082 58.5493 32.8354 58.6956 32.7626C58.842 32.6898 58.9152 32.5442 58.9884 32.3258C59.0616 32.1074 59.0616 31.8162 59.0616 31.4523V28.9771L54.6704 29.0499V31.5251C54.6704 31.8162 54.6704 32.0346 54.6704 32.253C54.6704 32.4714 54.6704 32.617 54.5972 32.7626C54.7436 32.7626 54.9631 32.7626 55.1827 32.7626C55.4022 32.7626 55.5486 32.7626 55.695 32.7626V33.709H51.8893V33.7818Z" fill="#E5B66C"/>
<path d="M65.7214 33.7817V32.9809C66.0142 32.9809 66.2337 32.9081 66.3801 32.7625C66.5265 32.6169 66.6729 32.3985 66.8192 32.1073C66.8924 31.8161 67.0388 31.5249 67.1852 31.2338L70.1126 23.2988H70.9177L74.0647 31.3794C74.1379 31.5249 74.2111 31.7433 74.2843 32.1073C74.3575 32.3985 74.4306 32.6897 74.4306 32.9081C74.577 32.9081 74.7234 32.9081 74.9429 32.9081C75.0893 32.9081 75.2357 32.9081 75.3821 32.9081V33.8545H71.6495V33.0537C71.9423 33.0537 72.1619 32.9809 72.235 32.8353C72.3082 32.6897 72.3814 32.5441 72.3814 32.3257C72.3814 32.1073 72.3082 31.8889 72.235 31.6705L71.8691 30.6514L68.5025 30.7242L68.0634 31.6705C67.9902 31.8161 67.917 32.0345 67.8438 32.2529C67.7707 32.4713 67.6975 32.6169 67.6243 32.8353C67.7707 32.8353 67.9902 32.8353 68.2098 32.8353C68.4293 32.8353 68.5757 32.8353 68.7221 32.8353V33.8545H65.7214V33.7817ZM68.7221 29.7778H71.5032L70.6981 27.6667C70.5517 27.3027 70.4786 27.0115 70.4054 26.6475C70.3322 26.2835 70.1858 25.9923 70.1126 25.7011C70.0394 25.9195 69.9663 26.1379 69.8931 26.4291C69.8199 26.7203 69.6735 27.0843 69.5271 27.5211L68.7221 29.7778Z" fill="#E5B66C"/>
<path d="M78.9681 33.7817V32.981C79.2609 32.981 79.4805 32.9082 79.6268 32.8354C79.7732 32.7626 79.8464 32.617 79.9196 32.3986C79.9928 32.1802 79.9928 31.889 79.9928 31.525V25.774C79.9928 25.4828 79.9928 25.2644 79.9928 25.046C79.9928 24.8276 79.9928 24.682 79.9928 24.5365C79.8464 24.5365 79.6268 24.5365 79.4073 24.5365C79.1877 24.5365 79.0413 24.5365 78.895 24.5365V23.5901C79.5536 23.5901 80.1391 23.5901 80.7978 23.5901C81.4565 23.5901 82.042 23.5901 82.7007 23.5901C83.8716 23.5901 84.7499 23.8085 85.4086 24.2453C86.0672 24.6821 86.4332 25.3372 86.36 26.2108C86.36 26.502 86.2868 26.7932 86.0672 27.0844C85.8477 27.3756 85.6281 27.594 85.3354 27.8123C85.0426 28.0307 84.6035 28.1763 84.0912 28.3219C85.1158 28.3947 85.8477 28.7587 86.36 29.1955C86.8723 29.7051 87.0918 30.2875 87.0918 30.9426C87.0918 31.5978 86.9455 32.1074 86.6527 32.5442C86.36 32.981 85.9209 33.2722 85.4086 33.4906C84.8962 33.7089 84.2376 33.8545 83.5789 33.8545H78.9681V33.7817ZM81.8224 32.9082C81.9688 32.9082 82.1883 32.9082 82.3347 32.9082C82.4811 32.9082 82.7007 32.9082 82.847 32.9082C82.9934 32.9082 83.1398 32.9082 83.2861 32.9082C83.9448 32.9082 84.4571 32.6898 84.7499 32.3258C85.1158 31.9618 85.2622 31.525 85.2622 30.8698C85.2622 30.3603 85.189 29.9963 84.9694 29.7051C84.7499 29.4139 84.5303 29.1955 84.1644 29.1227C83.8716 28.9771 83.5057 28.9771 83.1398 28.9771C82.847 28.9771 82.6275 28.9771 82.4811 28.9771C82.3347 28.9771 82.1152 28.9771 81.8956 28.9771V31.6706C81.8956 31.9618 81.8956 32.1802 81.8956 32.3986C81.8224 32.617 81.8224 32.7626 81.8224 32.9082ZM81.8224 28.1035H82.7007C83.1398 28.1035 83.5057 27.9579 83.7985 27.8123C84.0912 27.594 84.2376 27.3756 84.3839 27.0844C84.5303 26.7932 84.5303 26.4292 84.5303 26.0652C84.5303 25.6284 84.4571 25.3372 84.2376 25.046C84.0912 24.8276 83.8716 24.6093 83.5789 24.5365C83.2861 24.4637 83.0666 24.3909 82.7738 24.3909C82.5543 24.3909 82.4079 24.3909 82.2615 24.4637C82.1152 24.5365 82.042 24.6093 81.9688 24.8276C81.8956 25.046 81.8956 25.2644 81.8956 25.6284V28.1035H81.8224Z" fill="#E5B66C"/>
<path d="M96.3866 30.1418C96.3866 29.705 96.3134 29.4138 96.2402 29.2682C96.0938 29.1226 95.9475 28.977 95.7279 28.9042C95.5084 28.8314 95.2156 28.8314 94.9229 28.8314H94.3374V31.5249C94.3374 31.8161 94.3374 32.0345 94.3374 32.2529C94.3374 32.4713 94.3374 32.6169 94.2642 32.7625H96.533C96.8989 32.7625 97.1916 32.6897 97.4844 32.5441C97.7771 32.3985 97.9967 32.1801 98.1431 31.8889C98.2895 31.5977 98.4358 31.1609 98.4358 30.5785H99.2409L99.1677 33.636H91.4831V32.8353C91.7758 32.8353 91.9954 32.7625 92.1418 32.6897C92.2882 32.6169 92.3613 32.4713 92.4345 32.2529C92.5077 32.0345 92.5077 31.7433 92.5077 31.3793V25.5555C92.5077 25.3371 92.5077 25.0459 92.5077 24.8275C92.5077 24.6091 92.5077 24.4635 92.5077 24.3179C92.3613 24.3179 92.1418 24.3179 91.9222 24.3179C91.7027 24.3179 91.5563 24.3179 91.4099 24.3179V23.3716H98.6554L98.7286 26.1379H97.9235C97.9235 25.5555 97.8503 25.1915 97.6308 24.9003C97.4844 24.6091 97.1916 24.4635 96.9721 24.3179C96.6793 24.2452 96.3866 24.1724 96.0939 24.1724H95.362C95.0692 24.1724 94.9229 24.2452 94.7765 24.3179C94.6301 24.3907 94.5569 24.5363 94.4838 24.7547C94.4106 24.9731 94.4106 25.2643 94.4106 25.6283V27.885H96.4598L96.3866 26.6475H97.338V29.9962H96.3866V30.1418Z" fill="#E5B66C"/>
<path d="M111.17 26.8658C111.024 25.9922 110.731 25.4099 110.292 24.9731C109.853 24.5363 109.267 24.3179 108.536 24.3179C108.023 24.3179 107.584 24.4635 107.145 24.6819C106.706 24.9003 106.413 25.1915 106.12 25.6283C105.828 26.065 105.608 26.5018 105.462 27.0114C105.315 27.521 105.242 28.1034 105.242 28.6858C105.242 29.5593 105.389 30.2873 105.681 30.9425C105.974 31.5977 106.34 32.1072 106.852 32.4712C107.365 32.8352 107.95 33.0536 108.609 33.0536C109.267 33.0536 109.853 32.908 110.438 32.6168C111.024 32.3256 111.536 31.8889 111.975 31.3065L112.561 31.8161C112.122 32.4712 111.609 32.908 111.097 33.1992C110.585 33.4904 110.072 33.7816 109.56 33.8544C109.048 34 108.609 34 108.243 34C107.511 34 106.779 33.8544 106.194 33.636C105.608 33.3448 105.023 32.9808 104.583 32.544C104.144 32.1072 103.778 31.5249 103.559 30.8697C103.339 30.2145 103.193 29.5593 103.193 28.8314C103.193 28.1762 103.266 27.521 103.486 26.8658C103.705 26.2106 103.998 25.6283 104.437 25.1187C104.876 24.6091 105.389 24.1723 106.047 23.8811C106.706 23.5899 107.438 23.4443 108.316 23.4443C108.755 23.4443 109.194 23.5171 109.633 23.6627C110.072 23.8083 110.512 23.9539 110.951 24.2451L110.878 23.5899H111.902V27.0114H111.17V26.8658Z" fill="#E5B66C"/>
<path d="M0.146301 16.2374L56.4999 1.38135L112.854 16.2374" stroke="#E5B66C" stroke-width="1.3" stroke-miterlimit="10"/>
</g>
<defs>
<clipPath id="clip0">
<rect width="113" height="34" fill="white"/>
</clipPath>
</defs>
</svg>
